<svg xmlns="http://www.w3.org/2000/svg" viewBox="0 0 708.7 566.9"><style>.st0{fill:#fff}.st1{fill:#7895a4}.st2{fill:#00babc}.st3{fill:#676764}.st4{fill:#f0d0b4}.st5{fill:#ceab97}.st6{fill:#fbb040}.st7{fill:#1b75bc}.st8{fill:#a4d5dd}.st9{fill:#da1c5c}.st10{fill:#f5e0cd}.st11{fill:#cb8c84}.st13{fill:#7d4921}.st14{fill:#a46c35}.st15{fill:#808285}.st16{fill:#8b4324}</style><path class="st0" d="M-2-4h713v575H-2z" id="bg"/><g id="colorful_backgrounds"><circle class="st1" cx="480.5" cy="94.5" r="55.9"/><circle class="st2" cx="89.8" cy="93.9" r="56"/><circle class="st1" cx="220.1" cy="94.5" r="56"/><circle class="st2" cx="350.2" cy="94" r="55.9"/><circle class="st2" cx="611.2" cy="94.2" r="56"/><circle class="st1" cx="89.8" cy="224.9" r="56"/><circle class="st2" cx="220.1" cy="225.5" r="56"/><circle class="st1" cx="350.2" cy="224.9" r="55.9"/><circle class="st2" cx="480.5" cy="225.5" r="55.9"/><circle class="st1" cx="611.2" cy="225.2" r="56"/><circle class="st2" cx="90.1" cy="354.7" r="55.9"/><circle class="st1" cx="220.4" cy="355.3" r="55.9"/><circle class="st2" cx="350.5" cy="354.7" r="56"/><circle class="st1" cx="480.8" cy="355.3" r="55.9"/><circle class="st2" cx="611.5" cy="355" r="56"/><circle class="st1" cx="90.1" cy="485.7" r="55.9"/><circle class="st2" cx="220.4" cy="486.3" r="55.9"/><circle class="st1" cx="350.5" cy="485.7" r="56"/><circle class="st2" cx="480.8" cy="486.3" r="55.9"/><circle class="st1" cx="611.5" cy="486" r="56"/></g><g id="body"><path class="st3" d="M101.1 127.5c-1.2.5-3.4 1.2-3.3 1.2 0 .4-.1.9-.1 1.3-.7 4.9-3.7 8.6-7.3 8.6-3.5 0-6.5-3.6-7.3-8.4-.1-.4-.1-.8-.2-1.3-1.2-.3-2.5-.7-3.6-1.2-5.5 3.6-9.7 9.9-11.8 17.5 6.9 3 14.4 4.7 22.4 4.7 8.3 0 16.2-1.8 23.3-5.1-2.2-7.6-6.5-13.8-12.1-17.3z"/><path class="st4" d="M83 130.2c.8 4.8 3.7 8.4 7.3 8.4 3.6 0 6.6-3.7 7.3-8.6-2.2.7-4.9 1.2-7.7 1.2-2.5-.1-4.8-.4-6.9-1z"/><path class="st5" d="M83 130.2c2.1.6 4.4.9 6.9.9 2.8 0 5.5-.4 7.7-1.2.1-.4.1-.8.1-1.3-.1 0-.2 0-.3.1-.4.1-.9.2-1.3.3-.1 0-.3.1-.4.1-.6.1-1.1.2-1.7.3-.2 0-.3 0-.5.1-.5.1-.9.1-1.4.1h-.5c-.6 0-1.2.1-1.8.1-.5 0-1.1 0-1.6-.1h-.5c-.4 0-.8-.1-1.2-.1-.1 0-.3 0-.4-.1-.5-.1-1-.1-1.4-.2h-.1c-.6-.1-1.1-.2-1.6-.4-.1.6-.1 1 0 1.4z"/><path class="st2" d="M205.1 124.3c-8.1 3.6-14 9.8-15.5 17.1 8.8 5.7 19.2 9 30.5 9 11.8 0 22.8-3.7 31.8-9.9-1.8-6.9-7.4-12.8-15.3-16.2l-15.8 15.8-15.7-15.8z"/><path d="M205.4 124.2c-.1 0-.2.1-.3.1l15.8 15.8 15.8-15.8c-.1 0-.2-.1-.3-.1-4.5 2.9-9.8 4.6-15.5 4.6-5.7 0-11.1-1.7-15.5-4.6zM343.5 131.3c-3.2-.7-6.2-2-9-3.8-3.4 4.4-6.3 10.1-8.5 16.9 6.9 3.3 14.6 5.2 22.7 5.5l-5.2-18.6zM356.9 131.1l-5.2 18.7c7.9-.2 15.4-2.1 22.2-5.2-2.2-6.9-5.2-12.7-8.6-17.1-2.5 1.7-5.4 2.9-8.4 3.6z"/><path class="st6" d="M343.5 131.3l5.2 18.6h3l5.2-18.7c-2.2.6-4.6.9-7 .9-2.2-.1-4.4-.3-6.4-.8z"/><path class="st7" d="M480.6 150.5c21.4 0 40-12 49.4-29.7a64.18 64.18 0 0 0-23.1-17.4c-4.3 10.4-14.5 17.7-26.5 17.7-11.9 0-22.2-7.3-26.5-17.7-8.9 4-16.7 9.8-22.9 17.1 9.4 17.9 28.1 30 49.6 30z"/><path class="st3" d="M611.6 130.8c-10 0-18.9-5.2-24-13-4.5 5.8-7.8 13.2-9.4 21.6 9.3 6.8 20.7 10.8 33.1 10.8 12.6 0 24.3-4.2 33.7-11.3-1.7-8.2-4.9-15.4-9.3-21.1-5.2 7.9-14.1 13-24.1 13z"/><path class="st8" d="M592.2 123.3v23.6c2.3.8 4.6 1.5 7 2V128c-2.5-1.2-4.9-2.8-7-4.7zM630.8 123.4c-2.1 1.9-4.4 3.5-7 4.7v20.7c2.4-.6 4.7-1.3 7-2.1v-23.3z"/><path class="st7" d="M96.9 259.7c-1 10.3-3.8 17.7-7.1 17.7s-6-7.4-7.1-17.6c-2.5-.6-4.8-1.6-7-2.8-2.4 5.5-4.5 12.3-6.2 20.1 6.3 2.4 13.1 3.8 20.3 3.8 7.2 0 14.1-1.4 20.4-3.8-1.7-7.9-3.8-14.8-6.2-20.2-2.2 1.2-4.6 2.1-7.1 2.8z"/><path class="st9" d="M233.1 280c4.2-1 8.2-2.5 12-4.4-2.7-3.5-5.7-6.5-9.1-8.8.1.7.1 1.4.1 2.1.1 4.1-1.1 7.9-3 11.1zM204.2 266.8c-3.3 2.3-6.4 5.3-9.1 8.8 3.8 1.9 7.8 3.4 12 4.4-1.9-3.1-3-7-3-11.1 0-.8 0-1.4.1-2.1z"/><path class="st6" d="M207.8 268.8c0-1.6.2-3.1.6-4.6-1.5.7-2.9 1.5-4.2 2.5-.1.7-.1 1.4-.1 2.1 0 4.2 1.1 8 3 11.1 2 .5 4.1.9 6.2 1.1-3.3-2.5-5.5-7-5.5-12.2zM232.5 268.8c0 5.1-2.2 9.6-5.6 12.2 2.1-.3 4.2-.6 6.2-1.1 1.9-3.1 3-7 3-11.1 0-.7 0-1.4-.1-2.1-1.4-.9-2.8-1.8-4.2-2.5.5 1.5.7 3.1.7 4.6z"/><path class="st10" d="M232.5 268.8c0-1.6-.2-3.1-.6-4.6-.1 0-.2-.1-.3-.1-3.7.8-7.5 1.2-11.5 1.2-3.9 0-7.8-.4-11.5-1.2-.1 0-.2.1-.3.1-.4 1.4-.6 3-.6 4.6 0 5.1 2.2 9.6 5.6 12.2 2.2.3 4.5.4 6.8.4s4.6-.1 6.8-.4c3.4-2.5 5.6-7 5.6-12.2z"/><path class="st11" d="M220.1 264.8c-3.2 0-6.4-.5-9.3-1.5-.7.3-1.5.6-2.2.9 3.7.8 7.5 1.2 11.5 1.2 3.9 0 7.8-.4 11.5-1.2-.7-.3-1.4-.6-2.2-.9-2.9.9-6 1.5-9.3 1.5z"/><path d="M350.2 280.9c19.3 0 36.3-9.8 46.3-24.6-5.3-4.2-11.5-7.7-18.3-10.3-2.1 13.7-14 24.2-28.3 24.2s-26.1-10.4-28.3-24.1c-6.6 2.6-12.6 6-17.8 10.1 10.1 14.9 27.1 24.7 46.4 24.7z"/><g><path class="st7" d="M510.8 272.4c-.4-11.6-1.2-22.6-2.4-33-.9 4.5-2.9 8.7-5.6 12.2 2.7 6.5 4.4 14.3 4.7 22.7 1.2-.5 2.3-1.2 3.3-1.9zM452.2 239.7c-1.1 10.3-1.9 21.3-2.3 32.8 1.1.7 2.2 1.4 3.4 2 .3-8.4 2-16.1 4.7-22.6-2.9-3.5-4.9-7.7-5.8-12.2z"/><path d="M499.4 255.4c2.5 6 4 13.2 4.1 21.1 1.4-.6 2.7-1.3 4-2-.3-8.4-2-16.2-4.7-22.7-1 1.2-2.1 2.4-3.4 3.6zM461.4 255.5c-1.3-1.1-2.4-2.3-3.5-3.6-2.7 6.5-4.3 14.3-4.7 22.6 1.3.7 2.7 1.4 4 2 .2-7.8 1.7-15 4.2-21z"/><path class="st7" d="M480.3 262.7c-7.3 0-13.9-2.7-19-7.2-2.5 6-4 13.2-4.1 21 7 3.2 14.8 5 23.1 5s16.1-1.8 23.2-5c-.1-7.8-1.6-15.1-4.1-21.1-5.1 4.5-11.7 7.3-19.1 7.3z"/></g><path d="M612.2 259.3c-5.3 0-10.3-1.5-14.6-4-1.9 6.5-3.4 14.3-4.1 23 5.6 1.8 11.5 2.9 17.7 2.9 6.2 0 12.1-1 17.7-2.9-.7-8.3-2.1-15.7-3.8-22-3.9 1.9-8.3 3-12.9 3z"/><g><path d="M83.4 392c-3.6-.8-7-2.3-10-4.3-2.8 4.8-5.3 10.7-7.3 17.6 6.6 3.1 13.8 5 21.5 5.3L83.4 392zM96.4 391.9l-4.3 18.7c7.5-.3 14.6-2 21-4.9-2-7-4.5-13.1-7.3-17.9-2.8 1.9-6 3.3-9.4 4.1z"/><path class="st8" d="M83.4 392l4.2 18.6c.8 0 1.6.1 2.4.1.7 0 1.4 0 2-.1l4.3-18.7c-2.2.5-4.4.8-6.7.8-2.1 0-4.2-.2-6.2-.7z"/></g><path class="st3" d="M220.5 411.3c18.9 0 35.6-9.4 45.8-23.8-5.4-5.6-11.8-10.3-19-13.7-3.9 11.2-14.6 19.2-27.1 19.2-12.7 0-23.4-8.2-27.2-19.6 0-.1-.1-.2-.1-.3-7.2 3.2-13.6 7.6-19.1 13 10 15.2 27.2 25.2 46.7 25.2z"/><g><path class="st7" d="M351.1 390.1c-3.8 0-7.4-.7-10.7-2.1v21.7c3.3.6 6.6.9 10 .9 3.9 0 7.7-.4 11.4-1.2V388c-3.3 1.4-6.9 2.1-10.7 2.1zM367.9 384.7v23.2c4.1-1.4 8.1-3.2 11.7-5.4-.9-9.6-2-18.7-3.5-27-2 3.6-4.8 6.8-8.2 9.2zM334.4 384.7c-3.3-2.4-6.1-5.5-8.2-9.1-1.5 8.5-2.7 17.8-3.6 27.7 3.7 2.1 7.6 3.8 11.7 5.1v-23.7z"/><path d="M334.4 384.7v23.6c2 .6 4 1.1 6.1 1.4V388c-2.2-.8-4.3-2-6.1-3.3zM361.8 409.5c2.1-.4 4.1-1 6.1-1.6v-23.2c-1.9 1.4-3.9 2.5-6.1 3.4v21.4z"/></g><g><path class="st5" d="M499.9 402.7c0 2-.4 3.9-1.2 5.7 4.1-1.4 8-3.3 11.7-5.5-4.4-4.9-9.7-8.7-15.5-11.1 3.1 2.8 5 6.6 5 10.9zM466.7 391.7c-5.9 2.4-11.2 6.2-15.5 11.1 3.6 2.3 7.5 4.1 11.7 5.5-.8-1.8-1.2-3.7-1.2-5.7 0-4.1 1.9-8 5-10.9z"/><path class="st3" d="M498.7 408.3c.8-1.8 1.2-3.7 1.2-5.7 0-4.2-1.9-8.1-5.1-11-.7-.3-1.3-.5-2-.8-3.1 3-7.3 4.8-12 4.8s-9-1.8-12-4.8c-.7.2-1.3.5-2 .8-3.1 2.9-5.1 6.7-5.1 11 0 2 .4 3.9 1.2 5.7 5.6 1.9 11.6 2.9 17.9 2.9 6.2.1 12.3-1 17.9-2.9z"/><path class="st5" d="M480.5 392.6c-3.8 0-7.4-.7-10.6-2-.4.1-.7.3-1.1.4 3.1 3 7.3 4.8 12 4.8s9-1.8 12-4.8c-.5-.2-1-.3-1.4-.5-3.4 1.4-7.1 2.1-10.9 2.1z"/></g><path class="st0" d="M628.8 392.9c-.1 0-.2-.1-.3-.1-4.5 2.9-9.8 4.6-15.5 4.6-5.7 0-11.1-1.7-15.5-4.6-.1 0-.2.1-.3.1l15.8 16 15.8-16z"/><path d="M90.2 521.9c-6.4 0-12.4-2.1-17.2-5.7-3.6 5.2-6.2 12-7.6 19.8 7.5 3.7 15.9 5.8 24.8 5.8s17.3-2.1 24.8-5.8c-1.4-7.7-4-14.5-7.6-19.7-4.9 3.4-10.8 5.6-17.2 5.6z" fill="#ed145b"/><g><path d="M240.2 515.4c-4.2 4.4-9.7 7.4-15.9 8.5-1.1 6.7-2.6 10.9-4.2 10.9s-3.1-4.1-4.2-10.7c-5.9-.7-11.3-3.3-15.6-7.1-.9 6.4-1.5 13.4-1.5 20.7v.2c6.6 2.8 13.9 4.3 21.6 4.3 7.6 0 14.8-1.5 21.4-4.3v-.3c.1-7.8-.5-15.4-1.6-22.2z"/><path class="st6" d="M215.9 524c1.1 6.6 2.6 10.7 4.2 10.7 1.7 0 3.2-4.2 4.2-10.9-1.6.3-3.2.4-4.9.4-1.1.1-2.3 0-3.5-.2z"/></g><path class="st3" d="M359.5 531.5c-2.7.9-5.6 1.4-8.6 1.4-3.1 0-6-.5-8.8-1.5-3.9 1.4-7.4 3.7-10.3 6.7 5.9 2.3 12.2 3.6 18.9 3.6 6.7 0 13.1-1.3 18.9-3.6-2.8-2.9-6.3-5.2-10.1-6.6z"/><g><path class="st6" d="M622.2 522.5c-3.2 1.3-6.9 2-10.7 2-3.9 0-7.5-.7-10.7-2-6.1 2.6-11.3 7.3-14.7 13.3 7.6 3.9 16.3 6.1 25.4 6.1 9.2 0 17.8-2.2 25.4-6.1-3.4-6-8.6-10.7-14.7-13.3z"/><path class="st9" d="M622.2 522.5c-1.1-.4-2.1-.8-3.2-1.1-2.4.7-5 1.1-7.7 1.1-2.6 0-5.1-.4-7.5-1-1 .3-2.1.7-3.1 1.1 3.2 1.3 6.9 2 10.7 2 4 0 7.6-.8 10.8-2.1z"/></g><path class="st8" d="M489.5 524.9c-2.4 1.1-5.2 1.8-8.2 1.8-3 0-5.8-.7-8.2-1.8-4.5 2.8-8.2 7.9-10.6 14.3 5.7 2 11.9 3.1 18.3 3.1 6.7 0 13.2-1.2 19.2-3.4-2.4-6.3-6.1-11.2-10.5-14z"/></g><g id="face"><path class="st4" d="M255.4 96.5c0-3.3-2.6-6.1-5.9-6.3V86c0-15.8-12.8-28.7-28.7-28.7-15.8 0-28.7 12.8-28.7 28.7v4.2c-3.3.3-5.9 3-5.9 6.3 0 3.4 2.7 6.2 6 6.4 1.4 14.6 13.6 26 28.6 26 14.9 0 27.2-11.4 28.6-26 3.4-.3 6-3.1 6-6.4z"/><path class="st5" d="M189.3 96.5c0 1.6 1.3 2.9 2.9 2.9v-5.9c-1.6.1-2.9 1.4-2.9 3zM252.5 96.5c0 1.6-1.3 2.9-2.9 2.9v-5.9c1.6.1 2.9 1.4 2.9 3z"/><path class="st10" d="M384.5 99.7c0-3.3-2.6-6.1-5.9-6.3v-4.2c0-15.8-12.8-28.7-28.7-28.7-15.8 0-28.7 12.8-28.7 28.7v4.2c-3.3.3-5.9 3-5.9 6.3 0 3.4 2.7 6.2 6 6.4 1.4 14.6 13.6 26 28.6 26 14.9 0 27.2-11.4 28.6-26 3.3-.3 6-3 6-6.4z"/><path class="st5" d="M318.3 99.8c0 1.6 1.3 2.9 2.9 2.9v-5.9c-1.6 0-2.9 1.3-2.9 3zM381.6 99.8c0 1.6-1.3 2.9-2.9 2.9v-5.9c1.5 0 2.9 1.3 2.9 3zM514.9 88.8c0-3.3-2.6-6.1-5.9-6.3v-4.2c0-15.8-12.8-28.7-28.7-28.7-15.8 0-28.7 12.8-28.7 28.7v4.2c-3.3.3-5.9 3-5.9 6.3 0 3.4 2.7 6.2 6 6.4 1.4 14.6 13.6 26 28.6 26 14.9 0 27.2-11.4 28.6-26 3.3-.3 6-3 6-6.4z"/><path class="st13" d="M448.7 88.9c0 1.6 1.3 2.9 2.9 2.9v-5.9c-1.6 0-2.9 1.3-2.9 3zM512 88.9c0 1.6-1.3 2.9-2.9 2.9v-5.9c1.6 0 2.9 1.3 2.9 3z"/><path class="st4" d="M646.1 98.5c0-3.3-2.6-6.1-5.9-6.3V88c0-15.8-12.8-28.7-28.7-28.7-15.8 0-28.7 12.8-28.7 28.7v4.2c-3.3.3-5.9 3-5.9 6.3 0 3.4 2.7 6.2 6 6.4 1.4 14.6 13.6 26 28.6 26 14.9 0 27.2-11.4 28.6-26 3.3-.3 6-3.1 6-6.4z"/><path class="st5" d="M579.9 98.5c0 1.6 1.3 2.9 2.9 2.9v-5.9c-1.6.1-2.9 1.4-2.9 3zM643.2 98.5c0 1.6-1.3 2.9-2.9 2.9v-5.9c1.5.1 2.9 1.4 2.9 3z"/><path class="st4" d="M647.4 365.1c0-3.3-2.6-6.1-5.9-6.3v-4.2c0-15.8-12.8-28.7-28.7-28.7-15.8 0-28.7 12.8-28.7 28.7v4.2c-3.3.3-5.9 3-5.9 6.3 0 3.4 2.7 6.2 6 6.4 1.4 14.6 13.6 26 28.6 26 14.9 0 27.2-11.4 28.6-26 3.4-.3 6-3 6-6.4z"/><path class="st5" d="M581.3 365.2c0 1.6 1.3 2.9 2.9 2.9v-5.9c-1.6 0-2.9 1.3-2.9 3zM644.5 365.2c0 1.6-1.3 2.9-2.9 2.9v-5.9c1.6 0 2.9 1.3 2.9 3z"/><path class="st4" d="M645.8 490.1c0-3.3-2.6-6.1-5.9-6.3v-4.2c0-15.8-12.8-28.7-28.7-28.7-15.8 0-28.7 12.8-28.7 28.7v4.2c-3.3.3-5.9 3-5.9 6.3 0 3.4 2.7 6.2 6 6.4 1.4 14.6 13.6 26 28.6 26 14.9 0 27.2-11.4 28.6-26 3.4-.2 6-3 6-6.4z"/><path class="st11" d="M579.7 490.2c0 1.6 1.3 2.9 2.9 2.9v-5.9c-1.6.1-2.9 1.4-2.9 3zM642.9 490.2c0 1.6-1.3 2.9-2.9 2.9v-5.9c1.6.1 2.9 1.4 2.9 3z"/><path class="st10" d="M515.8 492.2c0-3.3-2.6-6.1-5.9-6.3v-4.2c0-15.8-12.8-28.7-28.7-28.7-15.8 0-28.7 12.8-28.7 28.7v4.2c-3.3.3-5.9 3-5.9 6.3 0 3.4 2.7 6.2 6 6.4 1.4 14.6 13.6 26 28.6 26 14.9 0 27.2-11.4 28.6-26 3.4-.2 6-3 6-6.4z"/><path class="st5" d="M449.7 492.3c0 1.6 1.3 2.9 2.9 2.9v-5.9c-1.6.1-2.9 1.4-2.9 3zM512.9 492.3c0 1.6-1.3 2.9-2.9 2.9v-5.9c1.6.1 2.9 1.4 2.9 3zM385.2 499.9c0-3.3-2.6-6.1-5.9-6.3v-4.2c0-15.8-12.8-28.7-28.7-28.7-15.8 0-28.7 12.8-28.7 28.7v4.2c-3.3.3-5.9 3-5.9 6.3 0 3.4 2.7 6.2 6 6.4 1.4 14.6 13.6 26 28.6 26 14.9 0 27.2-11.4 28.6-26 3.3-.2 6-3 6-6.4z"/><path class="st13" d="M319 500c0 1.6 1.3 2.9 2.9 2.9V497c-1.5.1-2.9 1.4-2.9 3zM382.3 500c0 1.6-1.3 2.9-2.9 2.9V497c1.6.1 2.9 1.4 2.9 3z"/><path class="st10" d="M385.7 357.8c0-3.3-2.6-6.1-5.9-6.3v-4.2c0-15.8-12.8-28.7-28.7-28.7-15.8 0-28.7 12.8-28.7 28.7v4.2c-3.3.3-5.9 3-5.9 6.3 0 3.4 2.7 6.2 6 6.4 1.4 14.6 13.6 26 28.6 26 14.9 0 27.2-11.4 28.6-26 3.3-.3 6-3 6-6.4z"/><path class="st5" d="M319.5 357.9c0 1.6 1.3 2.9 2.9 2.9v-5.9c-1.6 0-2.9 1.3-2.9 3zM382.8 357.9c0 1.6-1.3 2.9-2.9 2.9v-5.9c1.6 0 2.9 1.3 2.9 3z"/><path class="st4" d="M254.7 360.7c0-3.3-2.6-6.1-5.9-6.3v-4.2c0-15.8-12.8-28.7-28.7-28.7-15.8 0-28.7 12.8-28.7 28.7v4.2c-3.3.3-5.9 3-5.9 6.3 0 3.4 2.7 6.2 6 6.4 1.4 14.6 13.6 26 28.6 26 14.9 0 27.2-11.4 28.6-26 3.3-.3 6-3.1 6-6.4z"/><path class="st11" d="M188.5 360.7c0 1.6 1.3 2.9 2.9 2.9v-5.9c-1.6.1-2.9 1.4-2.9 3zM251.8 360.7c0 1.6-1.3 2.9-2.9 2.9v-5.9c1.5.1 2.9 1.4 2.9 3z"/><path class="st4" d="M253.9 491.9c0-3.3-2.6-6.1-5.9-6.3v-4.2c0-15.8-12.8-28.7-28.7-28.7-15.8 0-28.7 12.8-28.7 28.7v4.2c-3.3.3-5.9 3-5.9 6.3 0 3.4 2.7 6.2 6 6.4 1.4 14.6 13.6 26 28.6 26 14.9 0 27.2-11.4 28.6-26 3.3-.2 6-3 6-6.4z"/><path class="st5" d="M187.7 492c0 1.6 1.3 2.9 2.9 2.9V489c-1.6.1-2.9 1.4-2.9 3zM251 492c0 1.6-1.3 2.9-2.9 2.9V489c1.6.1 2.9 1.4 2.9 3z"/><path class="st4" d="M124.7 489.5c0-3.3-2.6-6.1-5.9-6.3V479c0-15.8-12.8-28.7-28.7-28.7-15.8 0-28.7 12.8-28.7 28.7v4.2c-3.3.3-5.9 3-5.9 6.3 0 3.4 2.7 6.2 6 6.4 1.4 14.6 13.6 26 28.6 26 14.9 0 27.2-11.4 28.6-26 3.3-.2 6-3 6-6.4z"/><path class="st5" d="M58.5 489.6c0 1.6 1.3 2.9 2.9 2.9v-5.9c-1.6.1-2.9 1.4-2.9 3zM121.8 489.6c0 1.6-1.3 2.9-2.9 2.9v-5.9c1.5.1 2.9 1.4 2.9 3z"/><path class="st10" d="M124.2 360.4c0-3.3-2.6-6.1-5.9-6.3v-4.2c0-15.8-12.8-28.7-28.7-28.7-15.8 0-28.6 12.8-28.6 28.6v4.2c-3.3.3-5.9 3-5.9 6.3 0 3.4 2.7 6.2 6 6.4 1.4 14.6 13.6 26 28.6 26 14.9 0 27.2-11.4 28.6-26 3.3-.1 5.9-2.9 5.9-6.3z"/><path class="st5" d="M58 360.5c0 1.6 1.3 2.9 2.9 2.9v-5.9c-1.5 0-2.9 1.4-2.9 3zM121.3 360.5c0 1.6-1.3 2.9-2.9 2.9v-5.9c1.6 0 2.9 1.4 2.9 3z"/><path class="st10" d="M646.8 227c0-3.3-2.6-6.1-5.9-6.3v-4.2c0-15.8-12.8-28.7-28.7-28.7-15.8 0-28.7 12.8-28.7 28.7v4.2c-3.3.3-5.9 3-5.9 6.3 0 3.4 2.7 6.2 6 6.4 1.4 14.6 13.6 26 28.6 26 14.9 0 27.2-11.4 28.6-26 3.3-.3 6-3 6-6.4z"/><path class="st5" d="M580.6 227.1c0 1.6 1.3 2.9 2.9 2.9v-5.9c-1.6 0-2.9 1.4-2.9 3zM643.8 227.1c0 1.6-1.3 2.9-2.9 2.9v-5.9c1.6 0 2.9 1.4 2.9 3z"/><path class="st4" d="M515 230.4c0-3.3-2.6-6.1-5.9-6.3v-4.2c0-15.8-12.8-28.7-28.7-28.7-15.8 0-28.7 12.8-28.7 28.7v4.2c-3.3.3-5.9 3-5.9 6.3 0 3.4 2.7 6.2 6 6.4 1.4 14.6 13.6 26 28.6 26 14.9 0 27.2-11.4 28.6-26 3.3-.3 6-3.1 6-6.4z"/><path class="st5" d="M448.8 230.4c0 1.6 1.3 2.9 2.9 2.9v-5.9c-1.5.1-2.9 1.4-2.9 3zM512.1 230.4c0 1.6-1.3 2.9-2.9 2.9v-5.9c1.6.1 2.9 1.4 2.9 3z"/><path class="st4" d="M384.5 237.9c0-3.3-2.6-6.1-5.9-6.3v-4.2c0-15.8-12.8-28.7-28.7-28.7-15.8 0-28.7 12.8-28.7 28.7v4.2c-3.3.3-5.9 3-5.9 6.3 0 3.4 2.7 6.2 6 6.4 1.4 14.6 13.6 26 28.6 26 14.9 0 27.2-11.4 28.6-26 3.3-.2 6-3 6-6.4z"/><path class="st5" d="M318.3 238c0 1.6 1.3 2.9 2.9 2.9V235c-1.6.1-2.9 1.4-2.9 3zM381.6 238c0 1.6-1.3 2.9-2.9 2.9V235c1.5.1 2.9 1.4 2.9 3z"/><g><path class="st4" d="M124.2 228.3c0-3.3-2.6-6.1-5.9-6.3v-4.2c0-15.8-12.8-28.7-28.7-28.7C73.9 189 61 201.9 61 217.7v4.2c-3.3.3-5.9 3-5.9 6.3 0 3.4 2.7 6.2 6 6.4 1.4 14.6 13.6 26 28.6 26 14.9 0 27.2-11.4 28.6-26 3.3-.2 5.9-3 5.9-6.3z"/><path class="st5" d="M58.1 228.3c0 1.6 1.3 2.9 2.9 2.9v-5.9c-1.6.1-2.9 1.4-2.9 3zM121.3 228.3c0 1.6-1.3 2.9-2.9 2.9v-5.9c1.6.1 2.9 1.4 2.9 3z"/></g><g><path class="st10" d="M254.7 232.4c0-3.3-2.6-6.1-5.9-6.3v-4.2c0-15.8-12.8-28.7-28.7-28.7-15.8 0-28.7 12.8-28.7 28.7v4.2c-3.3.3-5.9 3-5.9 6.3 0 3.4 2.7 6.2 6 6.4 1.4 14.6 13.6 26 28.6 26 14.9 0 27.2-11.4 28.6-26 3.3-.2 6-3 6-6.4z"/><path class="st11" d="M188.5 232.5c0 1.6 1.3 2.9 2.9 2.9v-5.9c-1.6.1-2.9 1.4-2.9 3zM251.8 232.5c0 1.6-1.3 2.9-2.9 2.9v-5.9c1.5.1 2.9 1.4 2.9 3z"/></g><path class="st5" d="M466.7 249.7c0-2.3 1.3-4.3 3.3-5.3v-.7c-2.3 1-3.9 3.3-3.9 5.9 0 2.6 1.6 4.9 3.9 5.9v-.5c-2-1-3.3-3-3.3-5.3zM465.5 244.2h-.8c-.9 1.1-1.5 2.6-1.5 4.2 0 .7.1 1.5.4 2.1h.6c-.3-.7-.4-1.4-.4-2.1 0-1.7.7-3.1 1.7-4.2zM495.2 249.7c0-2.3-1.3-4.3-3.3-5.3v-.7c2.3 1 3.9 3.3 3.9 5.9 0 2.6-1.6 4.9-3.9 5.9v-.5c1.9-1 3.3-3 3.3-5.3zM496.3 244.2h.8c.9 1.1 1.5 2.6 1.5 4.2 0 .7-.1 1.5-.4 2.1h-.6c.3-.7.4-1.4.4-2.1.1-1.7-.6-3.1-1.7-4.2zM476.5 218.9v-.8c1.1-.9 2.5-1.4 4-1.4 1.3 0 2.6.4 3.6 1.1v.7c-1-.8-2.2-1.3-3.6-1.3-1.5.2-2.9.8-4 1.7zM476.5 216.3v-.8c1.1-.9 2.5-1.4 4-1.4 1.3 0 2.6.4 3.6 1.1v.7c-1-.8-2.2-1.3-3.6-1.3-1.5.1-2.9.7-4 1.7z"/><g><path class="st5" d="M515 360.3c0-3.3-2.6-6.1-5.9-6.3v-4.2c0-15.8-12.8-28.7-28.7-28.7-15.8 0-28.7 12.8-28.7 28.7v4.2c-3.3.3-5.9 3-5.9 6.3 0 3.4 2.7 6.2 6 6.4 1.4 14.6 13.6 26 28.6 26 14.9 0 27.2-11.4 28.6-26 3.3-.3 6-3 6-6.4z"/><path class="st14" d="M448.8 360.4c0 1.6 1.3 2.9 2.9 2.9v-5.9c-1.5 0-2.9 1.4-2.9 3zM512.1 360.4c0 1.6-1.3 2.9-2.9 2.9v-5.9c1.6 0 2.9 1.4 2.9 3z"/><path d="M491 327.1l-2.6-2-.4.5 2.7 2-1.6 2.1-1.8-1.3-.3.4 1.7 1.4-1.7 2.2-2.6-2-.4.5 2.6 2-1.6 2.1-1.7-1.3-.4.4 1.8 1.4-2.5 3.3.5.3 2.5-3.3 1.7 1.4.4-.5-1.8-1.3 1.6-2.1 2.6 1.9.4-.4-2.6-2 1.7-2.3 1.8 1.4.3-.5-1.8-1.4 1.6-2.1 2.7 2 .3-.4-2.6-2 2.3-3-.5-.4z"/></g><path class="st5" d="M58.2 97.5c0 1.6 1.3 2.9 2.9 2.9v-5.9c-1.6.1-2.9 1.4-2.9 3zM118.5 94.6v5.9c1.6 0 2.9-1.3 2.9-2.9.1-1.7-1.3-3-2.9-3z"/><path class="st4" d="M118.5 91.1v-4.2c0-15.8-12.8-28.7-28.7-28.7C74 58.2 61.1 71 61.1 86.9v4.2c-3.3.3-5.9 3-5.9 6.3 0 3.4 2.7 6.2 6 6.4 1.1 12.2 10 22.2 21.6 25.1 2.2.6 4.6.9 7 .9 2.7 0 5.4-.4 7.9-1.1 11.1-3.2 19.5-13 20.6-24.9 3.3-.2 6-3 6-6.4.1-3.3-2.5-6-5.8-6.3zm-57.4 9.4c-1.6 0-2.9-1.3-2.9-2.9 0-1.6 1.3-2.9 2.9-2.9v5.8zm57.4 0v-5.9c1.6 0 2.9 1.3 2.9 2.9.1 1.7-1.3 3-2.9 3z"/><path class="st9" d="M93.6 129.5c.2 0 .3 0 .5-.1-.2.1-.4.1-.5.1zM95.8 129.2c.1 0 .3-.1.4-.1-.2 0-.3 0-.4.1zM91.7 129.7h.5-.5zM84.5 129.3h0zM86.1 129.5c.1 0 .3 0 .4.1-.1 0-.3 0-.4-.1zM89.8 129.8zM87.7 129.7h.5-.5z"/><path class="st5" d="M86.5 129.6c.4 0 .8.1 1.2.1-.4 0-.8-.1-1.2-.1zM82.9 128.9c.5.1 1.1.3 1.6.4-.5-.1-1.1-.2-1.6-.4zM84.7 129.3c.5.1.9.2 1.4.2-.5 0-1-.1-1.4-.2zM91.7 129.7c-.6 0-1.2.1-1.8.1.5 0 1.2 0 1.8-.1zM94 129.5c.6-.1 1.2-.2 1.7-.3-.5.1-1.1.2-1.7.3zM88.2 129.7c.5 0 1.1.1 1.6.1-.5 0-1.1 0-1.6-.1zM96.1 129.1c.4-.1.9-.2 1.3-.3-.4.1-.8.2-1.3.3zM92.2 129.7c.5 0 .9-.1 1.4-.1-.5 0-1 0-1.4.1z"/><path class="st2" d="M82.8 259.8c1 10.3 3.8 17.6 7.1 17.6s6-7.4 7.1-17.7c-2.3.6-4.7.9-7.2.9s-4.8-.3-7-.8z"/><path class="st9" d="M628.8 392.9l-15.8 16-15.8-16c-5.7 2.5-10.2 6.3-13 10.9 8.1 4.6 17.4 7.2 27.2 7.2 10.8 0 20.9-3.1 29.5-8.5-2.8-4-7-7.4-12.1-9.6z"/><path class="st7" d="M489.5 524.9c-.6-.4-1.3-.7-1.9-1-2 .4-4.1.7-6.3.7s-4.2-.2-6.3-.7c-.7.3-1.3.6-1.9 1 2.4 1.1 5.2 1.8 8.2 1.8 3 0 5.8-.7 8.2-1.8z"/></g><g id="eyes"><path class="st0" d="M77.3 100.1c0 1.8-1.5 3.3-3.3 3.3-1.8 0-3.3-1.5-3.3-3.3v-1.6c0-1.8 1.5-3.3 3.3-3.3 1.8 0 3.3 1.5 3.3 3.3v1.6zM110.1 100.1c0 1.8-1.5 3.3-3.3 3.3-1.8 0-3.3-1.5-3.3-3.3v-1.6c0-1.8 1.5-3.3 3.3-3.3 1.8 0 3.3 1.5 3.3 3.3v1.6zM468 91.5c0 1.8-1.5 3.3-3.3 3.3-1.8 0-3.3-1.5-3.3-3.3v-1.6c0-1.8 1.5-3.3 3.3-3.3 1.8 0 3.3 1.5 3.3 3.3v1.6zM500.8 91.5c0 1.8-1.5 3.3-3.3 3.3-1.8 0-3.3-1.5-3.3-3.3v-1.6c0-1.8 1.5-3.3 3.3-3.3 1.8 0 3.3 1.5 3.3 3.3v1.6zM207.6 234.6c0 1.8-1.5 3.3-3.3 3.3-1.8 0-3.3-1.5-3.3-3.3V233c0-1.8 1.5-3.3 3.3-3.3 1.8 0 3.3 1.5 3.3 3.3v1.6zM240.4 234.6c0 1.8-1.5 3.3-3.3 3.3-1.8 0-3.3-1.5-3.3-3.3V233c0-1.8 1.5-3.3 3.3-3.3 1.8 0 3.3 1.5 3.3 3.3v1.6zM337.4 102.7c0 1.8-1.5 3.3-3.3 3.3-1.8 0-3.3-1.5-3.3-3.3v-1.6c0-1.8 1.5-3.3 3.3-3.3 1.8 0 3.3 1.5 3.3 3.3v1.6zM370.2 102.7c0 1.8-1.5 3.3-3.3 3.3-1.8 0-3.3-1.5-3.3-3.3v-1.6c0-1.8 1.5-3.3 3.3-3.3 1.8 0 3.3 1.5 3.3 3.3v1.6z"/><path class="st11" d="M334.2 97.8c-1.2 0-2.3.7-2.9 1.7h5.7c-.5-1-1.6-1.7-2.8-1.7zM367 97.8c-1.2 0-2.3.7-2.9 1.7h5.7c-.5-1-1.6-1.7-2.8-1.7z"/><path class="st0" d="M598.7 101.3c0 1.8-1.5 3.3-3.3 3.3-1.8 0-3.3-1.5-3.3-3.3v-1.6c0-1.8 1.5-3.3 3.3-3.3 1.8 0 3.3 1.5 3.3 3.3v1.6zM631.5 101.3c0 1.8-1.5 3.3-3.3 3.3-1.8 0-3.3-1.5-3.3-3.3v-1.6c0-1.8 1.5-3.3 3.3-3.3 1.8 0 3.3 1.5 3.3 3.3v1.6zM337.4 240.6c0 1.8-1.5 3.3-3.3 3.3-1.8 0-3.3-1.5-3.3-3.3V239c0-1.8 1.5-3.3 3.3-3.3 1.8 0 3.3 1.5 3.3 3.3v1.6zM370.2 240.6c0 1.8-1.5 3.3-3.3 3.3-1.8 0-3.3-1.5-3.3-3.3V239c0-1.8 1.5-3.3 3.3-3.3 1.8 0 3.3 1.5 3.3 3.3v1.6zM599.4 229.7c0 1.8-1.5 3.3-3.3 3.3-1.8 0-3.3-1.5-3.3-3.3v-1.6c0-1.8 1.5-3.3 3.3-3.3 1.8 0 3.3 1.5 3.3 3.3v1.6zM626.4 229.7c0 1.8 1.5 3.3 3.3 3.3 1.8 0 3.3-1.5 3.3-3.3v-1.6c0-1.8-1.5-3.3-3.3-3.3-1.8 0-3.3 1.5-3.3 3.3v1.6zM599.2 367.7c0 1.8-1.5 3.3-3.3 3.3-1.8 0-3.3-1.5-3.3-3.3v-1.6c0-1.8 1.5-3.3 3.3-3.3 1.8 0 3.3 1.5 3.3 3.3v1.6zM633.2 367.7c0 1.8-1.5 3.3-3.3 3.3-1.8 0-3.3-1.5-3.3-3.3v-1.6c0-1.8 1.5-3.3 3.3-3.3 1.8 0 3.3 1.5 3.3 3.3v1.6zM207.2 98.5c0 1.8-1.5 3.3-3.3 3.3-1.8 0-3.3-1.5-3.3-3.3v-1.6c0-1.8 1.5-3.3 3.3-3.3 1.8 0 3.3 1.5 3.3 3.3v1.6zM241.2 98.5c0 1.8-1.5 3.3-3.3 3.3-1.8 0-3.3-1.5-3.3-3.3v-1.6c0-1.8 1.5-3.3 3.3-3.3 1.8 0 3.3 1.5 3.3 3.3v1.6zM77.2 363c0 1.8-1.5 3.3-3.3 3.3-1.8 0-3.3-1.5-3.3-3.3v-1.6c0-1.8 1.5-3.3 3.3-3.3 1.8 0 3.3 1.5 3.3 3.3v1.6zM110 363c0 1.8-1.5 3.3-3.3 3.3-1.8 0-3.3-1.5-3.3-3.3v-1.6c0-1.8 1.5-3.3 3.3-3.3 1.8 0 3.3 1.5 3.3 3.3v1.6z"/><path class="st5" d="M74 367.9c1.9 0 3.6-1.4 3.9-3.3h-7.8c.3 1.8 2 3.3 3.9 3.3zM106.7 367.9c1.9 0 3.6-1.4 3.9-3.3h-7.7c.3 1.8 1.9 3.3 3.8 3.3z"/><g><path class="st0" d="M208.8 363.3c0 1.8-1.5 3.3-3.3 3.3-1.8 0-3.3-1.5-3.3-3.3v-1.6c0-1.8 1.5-3.3 3.3-3.3 1.8 0 3.3 1.5 3.3 3.3v1.6zM238.1 363.3c0 1.8-1.5 3.3-3.3 3.3-1.8 0-3.3-1.5-3.3-3.3v-1.6c0-1.8 1.5-3.3 3.3-3.3 1.8 0 3.3 1.5 3.3 3.3v1.6z"/></g><g><path class="st0" d="M338 360.5c0 1.8-1.5 3.3-3.3 3.3-1.8 0-3.3-1.5-3.3-3.3v-1.6c0-1.8 1.5-3.3 3.3-3.3 1.8 0 3.3 1.5 3.3 3.3v1.6zM371.5 360.5c0 1.8-1.5 3.3-3.3 3.3-1.8 0-3.3-1.5-3.3-3.3v-1.6c0-1.8 1.5-3.3 3.3-3.3 1.8 0 3.3 1.5 3.3 3.3v1.6z"/></g><g><path class="st0" d="M338.1 502.6c0 1.8-1.5 3.3-3.3 3.3-1.8 0-3.3-1.5-3.3-3.3V501c0-1.8 1.5-3.3 3.3-3.3 1.8 0 3.3 1.5 3.3 3.3v1.6zM371 502.6c0 1.8-1.5 3.3-3.3 3.3-1.8 0-3.3-1.5-3.3-3.3V501c0-1.8 1.5-3.3 3.3-3.3 1.8 0 3.3 1.5 3.3 3.3v1.6z"/></g><g><path class="st0" d="M467.9 363c0 1.8-1.5 3.3-3.3 3.3-1.8 0-3.3-1.5-3.3-3.3v-1.6c0-1.8 1.5-3.3 3.3-3.3 1.8 0 3.3 1.5 3.3 3.3v1.6zM500.8 363c0 1.8-1.5 3.3-3.3 3.3-1.8 0-3.3-1.5-3.3-3.3v-1.6c0-1.8 1.5-3.3 3.3-3.3 1.8 0 3.3 1.5 3.3 3.3v1.6z"/></g><g><path class="st0" d="M83.5 492.3c0 1.8-1.5 3.3-3.3 3.3-1.8 0-3.3-1.5-3.3-3.3v-1.6c0-1.8 1.5-3.3 3.3-3.3 1.8 0 3.3 1.5 3.3 3.3v1.6zM103.3 492.3c0 1.8-1.5 3.3-3.3 3.3-1.8 0-3.3-1.5-3.3-3.3v-1.6c0-1.8 1.5-3.3 3.3-3.3 1.8 0 3.3 1.5 3.3 3.3v1.6z"/></g><g><path class="st0" d="M206.8 494.6c0 1.8-1.5 3.3-3.3 3.3-1.8 0-3.3-1.5-3.3-3.3V493c0-1.8 1.5-3.3 3.3-3.3 1.8 0 3.3 1.5 3.3 3.3v1.6zM239.7 494.6c0 1.8-1.5 3.3-3.3 3.3-1.8 0-3.3-1.5-3.3-3.3V493c0-1.8 1.5-3.3 3.3-3.3 1.8 0 3.3 1.5 3.3 3.3v1.6z"/></g><g><path class="st0" d="M77.3 230.9c0 1.8-1.5 3.3-3.3 3.3-1.8 0-3.3-1.5-3.3-3.3v-1.6c0-1.8 1.5-3.3 3.3-3.3 1.8 0 3.3 1.5 3.3 3.3v1.6zM110.1 230.9c0 1.8-1.5 3.3-3.3 3.3-1.8 0-3.3-1.5-3.3-3.3v-1.6c0-1.8 1.5-3.3 3.3-3.3 1.8 0 3.3 1.5 3.3 3.3v1.6z"/></g><g><path class="st0" d="M468.8 494.9c0 1.8-1.5 3.3-3.3 3.3-1.8 0-3.3-1.5-3.3-3.3v-1.6c0-1.8 1.5-3.3 3.3-3.3 1.8 0 3.3 1.5 3.3 3.3v1.6zM501.6 494.9c0 1.8-1.5 3.3-3.3 3.3-1.8 0-3.3-1.5-3.3-3.3v-1.6c0-1.8 1.5-3.3 3.3-3.3 1.8 0 3.3 1.5 3.3 3.3v1.6z"/></g><g><path class="st0" d="M598.8 492.8c0 1.8-1.5 3.3-3.3 3.3-1.8 0-3.3-1.5-3.3-3.3v-1.6c0-1.8 1.5-3.3 3.3-3.3 1.8 0 3.3 1.5 3.3 3.3v1.6zM631.6 492.8c0 1.8-1.5 3.3-3.3 3.3-1.8 0-3.3-1.5-3.3-3.3v-1.6c0-1.8 1.5-3.3 3.3-3.3 1.8 0 3.3 1.5 3.3 3.3v1.6z"/></g><g><path class="st0" d="M473.9 233.1c0 1.8-1.5 3.3-3.3 3.3-1.8 0-3.3-1.5-3.3-3.3v-1.6c0-1.8 1.5-3.3 3.3-3.3 1.8 0 3.3 1.5 3.3 3.3v1.6zM493.7 233.1c0 1.8-1.5 3.3-3.3 3.3-1.8 0-3.3-1.5-3.3-3.3v-1.6c0-1.8 1.5-3.3 3.3-3.3 1.8 0 3.3 1.5 3.3 3.3v1.6z"/></g></g><g id="popils"><circle cx="74.2" cy="99.2" r="1.8"/><circle cx="106.9" cy="99.3" r="1.8"/><circle cx="464.8" cy="90.6" r="1.8"/><circle cx="497.5" cy="90.7" r="1.8"/><circle class="st7" cx="204.5" cy="233.7" r="1.8"/><circle class="st7" cx="237.2" cy="233.8" r="1.8"/><circle class="st7" cx="334.3" cy="101.9" r="1.8"/><circle class="st7" cx="367" cy="101.9" r="1.8"/><circle class="st15" cx="595.5" cy="100.4" r="1.8"/><circle class="st15" cx="628.3" cy="100.5" r="1.8"/><circle cx="334.3" cy="239.7" r="1.8"/><circle cx="367" cy="239.8" r="1.8"/><circle cx="596.2" cy="228.8" r="1.8"/><circle cx="629.6" cy="228.8" r="1.8"/><circle class="st13" cx="596.1" cy="366.9" r="1.8"/><circle class="st13" cx="630" cy="366.9" r="1.8"/><circle class="st7" cx="204" cy="97.6" r="1.8"/><circle class="st7" cx="237.9" cy="97.7" r="1.8"/><circle cx="74" cy="362.1" r="1.8"/><circle cx="106.7" cy="362.2" r="1.8"/><circle cx="205.6" cy="362.4" r="1.8"/><circle cx="234.8" cy="362.5" r="1.8"/><g><circle class="st7" cx="334.9" cy="359.6" r="1.8"/><circle class="st7" cx="368.2" cy="359.7" r="1.8"/></g><g><circle cx="335" cy="501.7" r="1.8"/><circle cx="367.7" cy="501.8" r="1.8"/></g><g><circle cx="464.8" cy="362.1" r="1.8"/><circle cx="497.5" cy="362.2" r="1.8"/></g><g><circle class="st7" cx="80.4" cy="491.4" r="1.8"/><circle class="st7" cx="100.1" cy="491.5" r="1.8"/></g><g><circle cx="203.7" cy="493.7" r="1.8"/><circle cx="236.4" cy="493.8" r="1.8"/></g><g><circle cx="74.2" cy="230" r="1.8"/><circle cx="106.9" cy="230.1" r="1.8"/></g><g><circle class="st14" cx="465.6" cy="494" r="1.8"/><circle class="st14" cx="498.3" cy="494.1" r="1.8"/></g><g><circle cx="595.6" cy="491.9" r="1.8"/><circle cx="628.3" cy="492" r="1.8"/></g><g><circle class="st7" cx="470.7" cy="232.2" r="1.8"/><circle class="st7" cx="490.4" cy="232.3" r="1.8"/></g></g><g id="beard"><path d="M501.2 100.8l-3.9-3.9-3.9 3.9-2.7-2.7-3.7 3.7-2.6 2.6-2.6-2.6-1.3-1.3-3.9 3.9-6.3-6.3-2.7 2.7-3.9-3.9-3.9 3.9-6.2-6.2c-1.2 3.1-1.8 6.5-1.8 10v14.2c0 15.8 12.8 28.7 28.7 28.7 15.8 0 28.7-12.8 28.7-28.7v-14.2c0-3.5-.6-6.9-1.8-10l-6.2 6.2z"/><path class="st3" d="M89.7 392.7c12.7 0 23.5-8.3 27.3-19.8H62.4c3.7 11.5 14.5 19.8 27.3 19.8z"/><path d="M220.1 389.2c-1.6 0-3.1-.6-4.4-1.5l-2.8 10.6 7.2 7.2 7.2-7.2-2.8-10.6c-1.2.9-2.7 1.5-4.4 1.5zM480.5 375.4c-7.7 0-14.2 5.1-16.4 12 4.7 3.2 10.3 5.2 16.4 5.2 6.1 0 11.8-1.9 16.4-5.2-2.2-6.9-8.8-12-16.4-12z"/><path class="st3" d="M192.2 99.6V103.9c0 3.6 1.8 10.3 1.8 10.3 1.2 3.3 3.1 6.3 5.3 8.9 1 1.1 2.1 2.2 3.3 3.2 5 4.1 11.3 6.6 18.3 6.6 6.9 0 13.3-2.5 18.3-6.6 1.2-1 2.2-2 3.2-3.1 2.3-2.6 4.1-5.6 5.4-8.9 0 0 1.8-6.7 1.8-10.3v-1.3c.1-1 0-2.2 0-3.2V93l-3 .1V95l-3.3 14.8-1.7-1.7-3.9 3.9-3.9-3.9-2.7 2.7-3.7-3.7-2.6-2.6-2.6 2.6-1.3 1.3-3.9-3.9-6.3 6.3-2.7-2.8-3.9 3.9-3.9-3.9-2 2-3.5-15.5v-1.2l-2.5-.1V99.6z"/></g><g id="mouth"><path class="st5" d="M90.5 120.3c3.2 0 5.9-2.6 5.9-5.9H84.6c0 3.2 2.7 5.9 5.9 5.9z"/><path class="st0" d="M480.5 116.2c3.2 0 5.9-2.6 5.9-5.9h-11.8c0 3.2 2.7 5.9 5.9 5.9z"/><path class="st9" d="M220.9 256.7c3.2 0 5.9-2.6 5.9-5.9H215c0 3.3 2.6 5.9 5.9 5.9z"/><path class="st11" d="M349.9 124.6c3.2 0 5.9-2.6 5.9-5.9H344c.1 3.3 2.7 5.9 5.9 5.9zM611.2 123.2c3.2 0 5.9-2.6 5.9-5.9h-11.8c0 3.3 2.7 5.9 5.9 5.9z"/><path class="st9" d="M350.6 260.8c3.2 0 5.9-2.6 5.9-5.9h-11.8c0 3.2 2.7 5.9 5.9 5.9z"/><path class="st11" d="M612.9 243.9c3.2 0 5.9 2.6 5.9 5.9H607c0-3.2 2.7-5.9 5.9-5.9zM612.9 389.6c3.2 0 5.9-2.6 5.9-5.9H607c0 3.3 2.7 5.9 5.9 5.9z"/><path class="st4" d="M220.9 120.6c3.2 0 5.9-2.6 5.9-5.9H215c0 3.2 2.6 5.9 5.9 5.9z"/><path class="st0" d="M90.4 377.2c3.2 0 5.9 2.6 5.9 5.9H84.5c0-3.2 2.6-5.9 5.9-5.9z"/><path class="st11" d="M220.1 383.5c3.2 0 5.9-2.6 5.9-5.9h-11.8c0 3.2 2.7 5.9 5.9 5.9z"/><path class="st5" d="M351.1 382.3c3.2 0 5.9-2.6 5.9-5.9h-11.8c.1 3.2 2.7 5.9 5.9 5.9z"/><path class="st9" d="M350.7 524.5c3.2 0 5.9-2.6 5.9-5.9h-11.8c0 3.2 2.6 5.9 5.9 5.9z"/><path class="st11" d="M90.8 512.4c3.2 0 5.9-2.6 5.9-5.9H84.9c0 3.3 2.7 5.9 5.9 5.9z"/><path class="st9" d="M220 514.7c3.2 0 5.9-2.6 5.9-5.9h-11.8c.1 3.3 2.7 5.9 5.9 5.9z"/><path class="st11" d="M90.5 251c3.2 0 5.9-2.6 5.9-5.9H84.6c0 3.3 2.7 5.9 5.9 5.9zM482 515c3.2 0 5.9-2.6 5.9-5.9h-11.8c0 3.3 2.6 5.9 5.9 5.9zM612 512.9c3.2 0 5.9-2.6 5.9-5.9h-11.8c0 3.3 2.6 5.9 5.9 5.9zM481.2 253.2c3.2 0 5.9-2.6 5.9-5.9h-11.8c0 3.3 2.6 5.9 5.9 5.9z"/><path class="st0" d="M480.8 379.9c3.2 0 5.9 2.6 5.9 5.9h-11.8c0-3.3 2.6-5.9 5.9-5.9z"/></g><g id="mustache"><path class="st0" d="M610.6 114l-2.9-2.5-4.3 4.3-1.8-1.8-2.7 2.7-2.7-2.7-1.4 1.4-.3-1.4c-1 1.4-1.8 2.9-2.4 4.5h18.5V114zM627.6 113.7l-.3 1.5-1.2-1.2-2.7 2.7-2.7-2.7-1.8 1.8-2.5-2.5-1.8-1.8-1.8 1.8-.7.7v4.4h18.1c-.6-1.7-1.5-3.3-2.6-4.7z"/><g><path class="st16" d="M350 377.2v-6.1c-6.8 0-12.3 5.5-12.3 12.3h3.3c1.3-3.6 4.8-6.2 9-6.2zM352.3 377.2c4.1 0 7.6 2.6 9 6.2h3.3c0-6.8-5.5-12.3-12.3-12.3v6.1z"/></g></g><g id="eyebrows"><path d="M74 91.6c2.1 0 3.9 1.1 4.9 2.6h.7A6.47 6.47 0 0 0 74 91c-2.4 0-4.5 1.3-5.6 3.2h.7c1-1.5 2.8-2.6 4.9-2.6zM106.8 91c2.3 0 4.3 1.3 5.3 3.3h.7c-1-2.3-3.3-3.9-5.9-3.9-2.6 0-4.9 1.6-5.9 3.9h.7c.8-2 2.8-3.3 5.1-3.3zM472.3 81.4l-.2.2-2.7-2.7-4.3 4.3-1.8-1.8-2.7 2.7-2.7-2.7-1.4 1.4-.3-1.4c-1 1.4-1.8 2.9-2.4 4.5h18.5v-4.5zM504 81l-.3 1.5-1.2-1.2-2.7 2.7-2.7-2.7-1.8 1.8-2.5-2.5-1.8-1.8-1.8 1.8-.7.7v4.4h18.1c-.7-1.6-1.6-3.2-2.6-4.7z"/><path class="st5" d="M204.5 225.4c2.9 0 5.4 1.1 6.9 2.6h1c-1.6-1.9-4.5-3.2-7.9-3.2-3.4 0-6.3 1.3-7.9 3.2h1c1.4-1.5 4-2.6 6.9-2.6zM236.3 225.7c3.2 0 6 1.3 7.4 3.3h.9c-1.4-2.3-4.6-3.9-8.3-3.9-3.7 0-6.9 1.6-8.3 3.9h.9c1.4-2 4.2-3.3 7.4-3.3z"/><path class="st0" d="M637.5 90l-.2.2-2.7-2.7-4.3 4.3-1.8-1.8-2.7 2.7-2.7-2.7-1.4 1.4-.3-1.4c-1 1.4-1.8 2.9-2.4 4.5h18.5V90zM600.1 89.7l-.3 1.5-1.2-1.2-2.7 2.7-2.7-2.7-1.8 1.8-2.5-2.5-1.8-1.8-1.8 1.8-.7.7v4.4h18.1c-.6-1.7-1.5-3.3-2.6-4.7z"/><path d="M334.1 232.1c2.1 0 3.9 1.1 4.9 2.6h.7a6.47 6.47 0 0 0-5.6-3.2c-2.4 0-4.5 1.3-5.6 3.2h.7c1.1-1.6 2.9-2.6 4.9-2.6zM366.9 231.5c2.3 0 4.3 1.3 5.3 3.3h.7c-1-2.3-3.3-3.9-5.9-3.9-2.6 0-4.9 1.6-5.9 3.9h.7c.8-2 2.8-3.3 5.1-3.3zM596.2 223.7c3.8 0 7.1 1.1 9.1 2.7h1.3c-2.1-1.9-5.9-3.2-10.4-3.2-4.4 0-8.3 1.3-10.4 3.2h1.3c2-1.7 5.4-2.7 9.1-2.7zM629.6 223.7c-3.8 0-7.1 1.1-9.1 2.7h-1.3c2.1-1.9 5.9-3.2 10.4-3.2 4.4 0 8.3 1.3 10.4 3.2h-1.3c-2-1.7-5.3-2.7-9.1-2.7z"/><path class="st16" d="M603.5 355.3l-11.3 5.2-1.2-4.9 11.9-2.7zM623.4 361.6l12.1 2.5v-5h-12.1z"/><path class="st3" d="M199.4 92.1l18-1.3v2.5h-18zM241.2 93l-18-1.2v2.5h18zM80.9 356l-1.5 1.5-2.1-2.1-1.5-1.5-1.5 1.5-.7.8-2.3-2.3-3.6 3.6-1.5-1.5-1 1v2.7h17.4v-2zM113.8 355.8l-1.5 1.5-2.2-2.1-1.5-1.5-1.4 1.5-.8.8-2.3-2.3-3.6 3.6-1.5-1.5-1 1v2.7h17.4v-2z"/><path d="M201.8 362.4l3.9-4 1.3 1.4 2.6 2.6 2.6-2.6.8-.8-7.4-7.4-7.3 7.3 3.5 3.5zM230.9 362.1l3.9-3.9 1.4 1.4 2.6 2.5 2.6-2.5.7-.8-7.3-7.4-7.3 7.3 3.4 3.4z"/><g><path class="st14" d="M334.3 354.9c2 0 3.9 1.1 4.9 2.6h.7a6.47 6.47 0 0 0-5.6-3.2c-2.4 0-4.5 1.3-5.6 3.2h.7c1.1-1.5 2.9-2.6 4.9-2.6zM368.4 354.9c2.3 0 4.3 1.3 5.3 3.3h.7c-1-2.3-3.3-3.9-5.9-3.9-2.6 0-4.9 1.6-5.9 3.9h.7c.8-2 2.7-3.3 5.1-3.3z"/></g><g><path d="M335 495.4c2.8 0 5.3 1.1 6.8 2.6h1c-1.6-1.9-4.4-3.2-7.7-3.2s-6.2 1.3-7.7 3.2h1c1.3-1.5 3.8-2.6 6.6-2.6zM366.5 495.1c3.2 0 5.9 1.3 7.3 3.3h.9c-1.4-2.3-4.5-3.9-8.2-3.9-3.6 0-6.8 1.6-8.2 3.9h.9c1.4-1.9 4.2-3.3 7.3-3.3z"/></g><g><path d="M472.7 357.6l-1.6 1.6-2.1-2.2-1.5-1.4-1.5 1.4-.7.8-2.3-2.2-3.6 3.6-1.5-1.6-1 1v2.8h17.4v-2.1zM489.2 357.6l1.5 1.6 2.1-2.2 1.5-1.4 1.5 1.4.8.8 2.2-2.2 3.6 3.6 1.6-1.6 1 1v2.8h-17.5v-2.1z"/></g><g><path d="M79.6 483.8c2.1 0 3.9 1.1 4.9 2.6h.7a6.47 6.47 0 0 0-5.6-3.2c-2.4 0-4.5 1.3-5.6 3.2h.7c1.1-1.6 2.9-2.6 4.9-2.6zM100.6 483.1c2.3 0 4.3 1.3 5.3 3.3h.7c-1-2.3-3.3-3.9-5.9-3.9-2.6 0-4.9 1.6-5.9 3.9h.7c.8-1.9 2.8-3.3 5.1-3.3z"/></g><g><path class="st14" d="M203.5 486.1c2.1 0 3.9 1.1 4.9 2.7h.7a6.47 6.47 0 0 0-5.6-3.2c-2.4 0-4.5 1.3-5.6 3.2h.7c1.1-1.7 2.9-2.7 4.9-2.7zM236.3 485.5c2.3 0 4.3 1.3 5.3 3.3h.7c-1-2.3-3.3-3.9-5.9-3.9-2.6 0-4.9 1.6-5.9 3.9h.7c.9-2 2.8-3.3 5.1-3.3z"/></g><g><path class="st14" d="M78.9 224l-8.1.8v-1.5h8.1zM102 224l8.1.8v-1.5H102z"/></g><g><path class="st6" d="M470.3 488l-8.1.8v-1.5h8.1zM493.5 488l8.1.8v-1.5h-8.1z"/></g><g><path d="M599.6 481l-8.1.7v-1.5h8.1zM622.5 480.2l8.1.8v-1.5h-8.1z"/></g><g><path class="st15" d="M470 224.6c2.1 0 3.9 1.1 4.9 2.6h.7a6.47 6.47 0 0 0-5.6-3.2c-2.4 0-4.5 1.3-5.6 3.2h.7c1-1.6 2.8-2.6 4.9-2.6zM491 223.9c2.3 0 4.3 1.3 5.3 3.3h.7c-1-2.3-3.3-3.9-5.9-3.9-2.6 0-4.9 1.6-5.9 3.9h.7c.8-1.9 2.8-3.3 5.1-3.3z"/></g></g><g id="glasses"><path class="st9" d="M357.2 93.9v2h-14.4v-2h-22.7v14.2h22.7V98.2h14.4V108.1h22.7V93.9h-22.7zm-16.7 2.9v9.1h-18.2v-9.6h18.2v.5zm37.1-.1v9.1h-18.2v-9.6h18.2v.5z"/><path d="M381.6 351.4l-.9-.8-4.7 5.5c-1.3-2.8-4.2-4.7-7.4-4.7-3.8 0-7 2.6-8 6.1H342c-.9-3.5-4.1-6.1-8-6.1-3.4 0-6.3 2-7.6 5l-4.8-5.5-.9.8 5.2 6 .1-.1c-.2.7-.3 1.4-.3 2.1 0 4.6 3.7 8.3 8.3 8.3 4.6 0 8.3-3.7 8.3-8.3v-.9h18v.9c0 4.6 3.7 8.3 8.3 8.3 4.6 0 8.3-3.7 8.3-8.3 0-.8-.1-1.6-.3-2.3l5-6zM334 366.2c-3.6 0-6.6-3-6.6-6.6s3-6.6 6.6-6.6c3.6 0 6.6 3 6.6 6.6s-2.9 6.6-6.6 6.6zm34.5 0c-3.6 0-6.6-3-6.6-6.6s3-6.6 6.6-6.6c3.7 0 6.6 3 6.6 6.6s-3 6.6-6.6 6.6zM505.8 226.6l-.9-.8-4.7 5.5c-1.3-2.8-4.2-4.7-7.4-4.7-3.8 0-7 2.6-8 6.1h-9c-.9-3.5-4.1-6.1-8-6.1-3.4 0-6.3 2-7.6 5l-4.8-5.5-.9.8 5.2 6 .1-.1c-.2.7-.3 1.4-.3 2.1 0 4.6 3.7 8.3 8.3 8.3 4.6 0 8.3-3.7 8.3-8.3v-.9h8.6v.9c0 4.6 3.7 8.3 8.3 8.3 4.6 0 8.3-3.7 8.3-8.3 0-.8-.1-1.6-.3-2.3l4.8-6zm-31.5 8.3c0 3.7-3 6.6-6.6 6.6-3.6 0-6.6-3-6.6-6.6 0-3.7 3-6.6 6.6-6.6 3.1 0 5.8 2.2 6.4 5.1v.6h.1c.1.3.1.6.1.9zm18.4 6.6c-3.6 0-6.6-3-6.6-6.6 0-3.7 3-6.6 6.6-6.6 3.7 0 6.6 3 6.6 6.6 0 3.6-3 6.6-6.6 6.6z"/></g><g id="hair"><path d="M116.6 76.5c-1.2-3.4-3-6.4-5.3-9-1-1.1-2.1-2.2-3.2-3.1-5-4.1-11.3-6.6-18.3-6.6-6.9 0-13.3 2.5-18.3 6.6-1.2 1-2.3 2-3.3 3.2-2.3 2.6-4.1 5.6-5.3 8.9l.1.1c-1.2 3.2-1.9 6.6-1.9 10.2v2.4l2.5 7 3.5-15.5 2 2 3.9-3.9 3.9 3.9 2.7-2.7 6.3 6.3 3.9-3.9 1.3 1.3 2.6 2.6 2.6-2.6L100 80l2.7 2.7 3.9-3.9 3.9 3.9 1.7-1.7 3.4 15.2 2.9-8.1v-1.3c0-3.7-.7-7.1-1.9-10.3zM487.6 46.8l-1.6 1.5-2.1-2.1-1.5-1.5-1.5 1.5-.7.7-2.3-2.2-3.6 3.6-1.5-1.5-1 1v2.7h17.4v-2.1z"/><path class="st6" d="M223.8 183.9l16.1-10.9c0-10.5-8.5-18.9-19-18.9s-19 8.5-19 19v.8l9.6 11.2c-4.8 1.5-9.1 4.2-12.4 7.9-4.7 5.1-7.7 12-7.7 19.5v13.1l20.5-23.8 36.9 25.1V212.6c0-14.9-10.9-26.9-25-28.7zM379 88.4c0-.4-.1-.8-.1-1.2V87c-.2-1.6-.4-3.1-.8-4.6L391 58.8l-8.4 3.5 6.8-12.4-13.4 5.6 2.6-4.8-6.7 2.8 4.9-9 1.4-2.6-4.8 2-13.6 5.7 3.2-5.8 1-1.8-3.8 2.2-29 16.7-.9 1.2c-6 7.9-9.6 17.7-9.6 28.4v4.1h.5l.6 2.5.2 1 2 8.7.5 2.4 1.2 5.1-.2-5.1-.1-2.4-.3-9.9-.1-2.4-.2-5.6 8.6-22c8.6 11 21.9 18.2 37 18.2 1 0 2.1 0 3.1-.1l1.5 3.9-.2 5.5-.1 2.4-.3 9.9-.1 2.4-.2 5.2 1.2-5.2.5-2.4 2.3-9.9h.5v-6.9-.5c.4-.3.4-.7.4-1z"/><path class="st0" d="M618.3 69.9l-1.6-1.5-2.1 2.1-1.5 1.5-1.5-1.5-.7-.8-2.3 2.3-3.6-3.6-1.5 1.5-1-1v-2.7h17.4v2zM630.6 65.8V67c0 8.6 3.8 16.4 9.9 21.6v-1.2c0-8.6-3.8-16.4-9.9-21.6zM590.9 66.9v-.4c-5.5 5.2-9 12.6-9 20.9v.4c5.6-5.2 9-12.6 9-20.9z"/><path class="st9" d="M387.9 204.2l6.2-10.5-13.3 5.5 2.6-4.8-6.7 2.8 6.3-11.6-16.1 6.7-1.1-1.4 2.9-5.2-4.7 2.7-8.7-11.8-.4 9.1-8.4-11.4-.6 14.4-3.2-4.4-.3 7.3-7.8-10.6-.3 6.5-3.2-1.9 3.1 5.6-.1 1.5-17.3-7.2 6.3 11.6-6.7-2.8 2.6 4.8-13.3-5.5 6.8 12.4-8.4-3.5 7 12.7 9.9 18.1.3.5v8.7l5.2 4.8-1.7-11-1.3-8.8 6.4 5.9-5.7-15.6c1-2.1 2.3-4 3.8-5.8l-.5 11.9 3.4-4.5.9-1.2.9-1.3.1 2.5.6 16.9v.6l.5-.6 7.4-9.9.1 1.8.2 5.5 3.3-4.4.3 9.5.2 4.9 8.5-11.3.3 9.1 4.8-6.4 9-12.1 2.7-3.6-.2 4.8-.4 8.4 5.2-7 .3 10.7.3 9.3 2.8-3.7v-8.2l.2-.3 16.9-30.8-7.9 1.6z"/><path class="st16" d="M634.4 335.2c2.2-2.6 3.9-5.5 5-8.7 2.3-6.4 2.2-13.6-.7-20.3l-4 1.8-42.2 18.6c.2.5.4 1 .6 1.6.5 1.5.8 2.9 1 4.4-.7.6-1.4 1.3-2.1 2-4.8 5.1-7.8 12-7.8 19.6v14.6c0 2.9.4 5.8 1.3 8.5l3.2-.5-3-20c5.4-5.1 8.5-12.2 8.6-19.5 7.8 7.5 19.7 10 30.2 5.4 3.3-1.5 6.2-3.5 8.6-6-.2 7 2.3 13.9 7 19.2l-3.2 21.2 3.2.5c.9-2.7 1.3-5.6 1.3-8.7v-14.5c.2-7.5-2.5-14.1-7-19.2zM351.1 317.7c-6 0-11.6 1.8-16.3 4.9-1.5 1-2.9 2.1-4.2 3.4-5.5 5.4-8.9 12.8-8.9 21.1V360.9h3.3l-1.6-9.8c3.6-2.6 6.5-5.8 8.6-9.8 1.6-3.1 2.6-6.4 3-9.8 4.5 5 10.2 9.4 16.8 12.9 8.9 4.7 18.3 7.1 27.1 7.1l-1.6 9.9h3.3v-14.3c0-16.2-13.2-29.4-29.5-29.4z"/><path d="M390.3 471.8c0-.8-.2-1.6-.5-2.3.9-2.6.7-5.5-.8-7.9-.3-.5-.7-1-1.1-1.4l-.1-.1c.1-.2.2-.4.2-.6.8-2.7-.7-5.6-3.5-6.4-.7-.2-1.5-.3-2.2-.2 0-4-2.6-7.6-6.6-8.8-1.5-.5-3.1-.5-4.6-.2-.2 0-.4.1-.6.1-.8-1.4-1.9-2.6-3.3-3.5-3.4-2-7.5-1.7-10.5.6l-.6.3c-.4-.5-.9-1-1.5-1.4-1.8-1.1-4.1-.9-5.7.2-.8.1-1.5.3-2.2.7-.1.1-.3.2-.4.3l-.1-.1c-1.6-1.4-3.8-1.7-5.6-.9-2.2-.4-4.4 0-6.5 1.2-.9.5-1.6 1.2-2.3 1.9-.8-.3-1.7-.6-2.6-.6-1.2-.1-2.4 0-3.6.3-4 1.2-6.6 4.8-6.6 8.8-.7-.1-1.5-.1-2.2.2-2.7.8-4.3 3.7-3.5 6.4.1.2.1.4.2.6l-.1.1c-.9 1-1.5 2.1-1.9 3.3-.8 2.3-.6 4.9.5 7.1-.6.9-1 1.9-1 3.1 0 1.9 1 3.6 2.6 4.5-1.4 1.6-2.3 3.7-2.3 6.1 0 3.1 1.5 5.8 3.8 7.5-1.3 1.6-1.5 4-.4 5.9 1.5 2.4 4.7 3.2 7.1 1.7 1.3-.8 2.1-2.1 2.4-3.5.8-.9 1.2-2.1 1.2-3.3v-.4c2.7-1.6 4.4-4.6 4.4-7.9 0-.7-.1-1.4-.3-2.1.6-.1 1.2-.3 1.7-.5.6.7 1.4 1.4 2.3 1.9 2 1.2 4.3 1.6 6.5 1.2 1.8.8 4.1.6 5.6-.9l.1-.1c.1.1.3.2.4.3.7.4 1.5.7 2.2.7 1.6 1.2 3.9 1.3 5.7.2.6-.4 1.1-.8 1.5-1.4l.6.3c3 2.3 7.1 2.6 10.5.6 1.4-.9 2.6-2.1 3.3-3.5l1.5.3c-.1.6-.2 1.3-.2 2 0 3.5 2 6.6 4.9 8.2-.3.6-.4 1.3-.4 2.1 0 2.4 1.6 4.3 3.7 5 2.4 1.4 5.6.6 7-1.8 1.2-1.9.9-4.3-.4-5.9 2.3-1.7 3.8-4.4 3.8-7.5 0-2.3-.9-4.4-2.3-6.1 1.7-.8 2.8-2.5 2.8-4.4zM120.1 506.4c1.1-1.9 1.9-3.9 2.4-6 2 .7 4.2 1.1 6.3 1.2-1.2-1.1-2.3-2.4-3.4-3.7 2.9-6.4 2.5-13.4-.4-19.3 5.3-11.1.6-24.4-10.5-29.7-5.8-2.8-12.2-2.8-17.8-.6-.4-.1-.7-.2-1.1-.3.7-1 1.4-1.9 2.2-2.8 1.1-1.3 2.3-2.5 3.6-3.5-3.4-.1-6.8.9-9.7 3-2.5-1.6-5.4-2.5-8.3-2.7 1.3 1.2 2.5 2.6 3.6 4.1.4.5.7 1 1 1.5-.7.1-1.4.2-2 .3-5.7-2.5-12.4-2.6-18.5.3-11.1 5.3-15.8 18.6-10.5 29.7-3 5.8-3.3 12.9-.4 19.3-1.1 1.3-2.2 2.5-3.4 3.7 2.2-.1 4.3-.5 6.3-1.2.5 2.2 1.4 4.3 2.6 6.3-1.1 2.4-2.5 4.8-4.2 7-1.4 1.9-3 3.6-4.7 5.2 5.2-.2 10.4-2.3 14.4-6 .5.4 1 .8 1.6 1.1.6.4 1.2.7 1.8 1-.5-1.4-1-2.8-1.4-4.2.2-.3.4-.5.7-.8 5-6.6 5.7-15 2.7-22.1 1.3-3.1 1.9-6.4 1.7-9.7.1-.1.1-.2.2-.3.4 3.4 1.6 6.8 3.7 9.9.4.6.8 1.1 1.2 1.6.2-7.4 2.4-14.6 6.4-20.9.1 0 .2-.1.3-.1-.1 0-.1 0-.2-.1.4-.5.7-1.1 1.1-1.6.9 1.4 1.9 2.7 3.3 3.8.4.3.8.6 1.1.9-.7-2.8-.9-5.7-.8-8.6.7.7 1.4 1.5 2.1 2.3 0 3.3-.5 6.5-1.5 9.6.4-.3.9-.5 1.3-.9 1.5-1.1 2.8-2.4 3.8-3.8 3.7 6.1 5.7 13 5.9 20 .4-.5.8-1 1.2-1.6 2.1-3.1 3.3-6.5 3.7-9.9.1.1.1.2.2.3-.1 3.1.4 6.3 1.6 9.3-2.8 7-2 15.2 2.9 21.7.3.3.5.6.8.9-.4 1.6-.9 3.2-1.5 4.8.6-.3 1.2-.6 1.8-1 .7-.5 1.4-1 2-1.5 3.9 3.5 8.9 5.4 13.9 5.6-1.7-1.6-3.2-3.3-4.7-5.2-2-1.8-3.3-4-4.4-6.3z"/><path class="st16" d="M113.5 201.1c-5.2-7.6-13.9-12.6-23.8-12.6s-18.6 5-23.8 12.7C53 202.8 42.8 213 41.1 225.8h21.8l3.3-12.4h47.2l3.3 12.4h21.8c-1.7-13-12-23.2-25-24.7z"/><path class="st6" d="M482.3 449.7h-.9c-17.2 0-31.2 13.9-31.2 31.2v15.4c0 9.2 4 17.4 10.3 23.1-4.5-5.1-7.2-11.8-7.2-19.1 0-1.4.1-2.8.3-4.2l.6 2.1c.3 1.8.3 3.6.1 5.3.6-2 .8-4.2.5-6.4 1.8 4.4 4.5 8.3 8 11.4-4.5-5.1-7.2-11.8-7.2-19.1v-.3c1.3-3.1 3.2-6 5.4-8.4-1.6 4.2-2.2 8.6-2 12.9.2-3.3.9-6.6 2.3-9.8 1.2-2.7 2.7-5.1 4.5-7.2l.9-.6c-2.1 3.4-3.5 7.1-4.2 10.8 1-3.2 2.5-6.2 4.6-9 1.1-1.5 2.4-2.8 3.7-4 1.7-.7 3.4-1.3 5.3-1.7l-.7 1.5c-1.3 3-1.8 6.2-1.6 9.2.1-2.1.6-4.3 1.5-6.4.8-1.8 1.8-3.3 2.9-4.7.1 0 .3 0 .4-.1-1.3 2.1-2.1 4.4-2.5 6.7.6-2.1 1.6-4 3-5.9.3-.4.6-.7.8-1l1.2-1.2 1.2-20.5zM482.9 449.6l-1.1 20.2 1.5 1.5c.3.3.6.7.9 1.1 1.4 1.8 2.4 3.8 3 5.9-.4-2.4-1.3-4.7-2.6-6.8h.3c1.2 1.4 2.3 3 3.1 4.9.9 2.1 1.4 4.3 1.5 6.4.2-3.1-.3-6.2-1.6-9.2l-.7-1.7c1.7.3 3.3.7 4.8 1.3 1.1 1.1 2.2 2.2 3.2 3.5 2.1 2.8 3.6 5.8 4.6 9-.7-3.8-2.1-7.5-4.3-11 .3.1.5.3.7.4 1.9 2.2 3.5 4.7 4.8 7.6 1.4 3.2 2.1 6.5 2.3 9.8.3-4.7-.5-9.5-2.5-14.2 2 1.7 3.8 3.7 5.3 5.9.9 2.8 1.4 5.7 1.4 8.8 0 3.5-.6 6.8-1.8 9.9 1.9-3.9 3.1-8.2 3.3-12.7.5 3.6.4 7.3-.5 11.1-.8 3.4-2.2 6.5-4.1 9.2 3-3.5 5.3-7.8 6.5-12.6.1.8.1 1.5.1 2.3 0 3.5-.6 6.8-1.8 9.9 2.1-4.2 3.3-9 3.3-14v-15.4c0-16.6-13.1-30.2-29.6-31.1z"/><path class="st9" d="M668.8 461c-7.1-6.8-18.5-6.6-25.3.5-2.3 2.4-3.8 5.2-4.5 8.2-4-11.3-14.7-19.4-27.3-19.6h-.8c-12.5.2-23.1 8.1-27.2 19.3-.7-2.9-2.2-5.6-4.4-7.9-6.8-7.1-18.2-7.4-25.3-.5-7.1 6.8-7.4 18.2-.5 25.3l.8.8c.3-4.2 2.1-8.4 5.4-11.6 6.3-6 15.9-6.5 22.7-1.7-.4 1.8-.6 3.7-.6 5.7v2.5l.7 10.9c3.1-3.9 5.6-8.4 7-13.3l.1-.1c11-4.9 19.2-14.9 21.6-27 2.4 11.7 10.2 21.5 20.6 26.6 1.7 5.1 4.5 9.6 8.1 13.5l.7-10.5v-2.5c0-1.9-.2-3.7-.5-5.5 6.9-5 16.5-4.6 22.9 1.5 3.3 3.2 5.1 7.3 5.4 11.6.3-.3.6-.5.8-.8 6.9-7.2 6.7-18.6-.4-25.4z"/><path class="st3" d="M489.1 191.8c.5-1.1.8-2.4.8-3.7 0-5.2-4.2-9.4-9.4-9.4s-9.4 4.2-9.4 9.4c0 1.3.3 2.5.7 3.6-11.9 3.7-20.5 14.7-20.5 27.8v14.4c0 5.4 1.5 10.4 4 14.8l23-51.4c.7.2 1.4.3 2.2.3.7 0 1.4-.1 2.1-.2l22.9 51.1c2.5-4.3 3.9-9.3 3.9-14.6v-14.4c0-13-8.5-24-20.3-27.7z"/><path d="M612.2 186.8c-6.5 0-12.5 2.1-17.3 5.7-.6.4-1.2.9-1.7 1.4-6.2 5.3-10.1 13.2-10.1 22v11.2l22.4-16.3 19.6 27 16.2-11.7v-10.2c0-16-13-29.1-29.1-29.1zM633.5 249.7h7.4v-16.5h-.1c-.7 6.4-3.3 12.1-7.3 16.5zM583.5 233.3v16.5h7.4c-4-4.5-6.6-10.2-7.2-16.5h-.2z"/><g><path class="st9" d="M193.4 339.7c-.9 2.2-1.5 4.6-1.7 7.1h9.7v-15.2l-1.7-1.7c-2.7 2.8-4.9 6.1-6.3 9.8zM246.8 339.7c-1.4-3.7-3.7-7.1-6.4-9.9l-2.1 2.1v15.3h10.3c-.2-2.6-.8-5.1-1.8-7.5z"/><path d="M247 305l-6.2 6.2-3.9-3.9-1.8 1.8-2.1 2.1-2.7-2.7-3.7 3.7-2.6 2.6-2.6-2.6-1.3-1.3-3.9 3.9-6.3-6.3-2.7 2.7-2.2-2.2-1.8-1.8-3.9 3.9-6.2-6.2c-1.2 3.1-1.8 6.5-1.8 10v14.2c0 3.7.7 7.2 1.9 10.4 1.4-3.7 3.6-7 6.3-9.8l16.8 16.8h7l16.9-16.9c2.8 2.8 5 6.1 6.4 9.9 1.2-3.2 1.9-6.7 1.9-10.4v-14.2c.3-3.4-.3-6.7-1.5-9.9z"/></g><path class="st16" d="M220 440.8c-27.2 0-49.2 22-49.2 49.2v14.8c9.8 7.7 21.5 13.2 34.3 15.6-8.6-4.9-14.4-14.2-14.4-24.9v-14.2c0-4.2.9-8.2 2.5-11.8l6.6 8.5H239l6.4-8.9c1.7 3.7 2.7 7.8 2.7 12.1v14.2c0 10.9-6.1 20.4-15.1 25.3 13.5-2.2 25.9-7.8 36.3-15.9v-14.9c0-27-22.1-49.1-49.3-49.1z"/><path class="st3" d="M194.5 84.6c4.1-4.9 6.6-11.3 6.6-18.2 5.2 5.1 12.3 8.3 20.2 8.3 6.7 0 12.9-2.3 17.8-6.2.9 5.8 3.6 11 7.5 15.1v10.6h3v-9c0-7.4-2.8-14.2-7.5-19.3-1-1.1-2.2-2.2-3.4-3.1-4.9-3.9-11.1-6.2-17.8-6.2-7.7 0-14.6 3-19.8 7.9l-1 1c-4.9 5.1-7.9 12.1-7.9 19.8v9.1h2.5l-.2-9.8z"/><g><path class="st3" d="M126.6 340.2c-.3-4.6-2.2-9.2-5.6-12.8-3.4-3.6-7.9-5.7-12.5-6.3-.5-.1-1.1-.1-1.6-.1l-8.4 7.9 3.2.1-.1 4 2.7.1-.2 6.4 4 .1v1.4l-.1 2.6 2.6.1 3.8.1-.1 2.7 4 .1-.1 2.5 8.3-7.9c.2-.4.1-.7.1-1zM53 340.2c.3-4.6 2.2-9.2 5.6-12.8 3.4-3.6 7.9-5.7 12.5-6.3.5-.1 1.1-.1 1.6-.1l8.4 7.9-3.2.1.1 4-2.7.1.2 6.4-4 .1v1.4l.1 2.6-2.6.1-3.8.1.1 2.7-4 .1.1 2.5-8.3-7.9c-.1-.4-.1-.7-.1-1zM87.3 317.7c.9-1.9 2.6-3.1 4.5-3.3l.3-.6c-2.2.2-4.3 1.5-5.3 3.7s-.7 4.6.6 6.4l.3-.6c-1.1-1.7-1.3-3.7-.4-5.6zM91.4 317.7c.9-1.9 2.6-3.1 4.5-3.3l.3-.6c-2.2.2-4.3 1.5-5.3 3.7s-.7 4.6.6 6.4l.3-.6c-1.1-1.7-1.3-3.7-.4-5.6z"/></g></g></svg>