<svg width="345.6" height="345.6" clip-rule="evenodd" fill-rule="evenodd" image-rendering="optimizeQuality" shape-rendering="geometricPrecision" text-rendering="geometricPrecision" viewBox="0 0 9144 9144" xmlns="http://www.w3.org/2000/svg"><defs><linearGradient id="a" x1="10043" x2="-898.9" y1="6303" y2="2841" gradientUnits="userSpaceOnUse"><stop stop-color="#48CFAE" offset="0"/><stop stop-color="#4FC0E8" offset="1"/></linearGradient></defs><path fill="url(#a)" d="M0 0h9144v9144H0z"/><path d="M3857 2961h1427v-314H3857v314zm-1214 908h1631v-309c0-53 43-96 96-96h404c53 0 96 43 96 96v309h1631v-716H2643v716zm1823 0h212v-213h-212v213zm2035 192H4870v309c0 53-43 96-96 96h-404c-53 0-96-43-96-96v-309H2643v2436h3858V4061zm-1823 0h-212v213h212v-213zM2547 2961h1119v-410c0-53 43-96 95-96h1619c53 0 96 43 96 96v410h1121c53 0 96 43 96 96v3536c0 53-43 96-96 96H2547c-53 0-96-43-96-96V3057c0-53 43-96 96-96z" fill="#fff" fill-rule="nonzero"/></svg>