<svg viewBox="0 0 50 50" xmlns="http://www.w3.org/2000/svg"><g transform="translate(10.742 15.596) scale(.48242)"><rect transform="rotate(-44.749)" x="-26.378" y="2.175" width="65.429" height="65.429" rx="6.954" ry="5.453" fill="#ff0" stroke="#000" stroke-width="3.888"/><path d="M19.111 45.164s-2.038-.341-2.61.323c-.676.783-1.754 1.762.078 3.102 1.832 1.34 6.904-.703 6.904-.703s3.149-1.166 3.642-2.2.722-1.646-.36-2.593c-1.082-.948-5.04 1.197-4.722.996z" color="#000"/><path d="M17.241 27.29l.476.58-2.032 3.762-9.103-2.295-.224-.968 10.883-1.08z"/><path d="M1.327 8.463l1.46-.66L9.65 18.7l-1.973 6.946L6 25.425 1.326 8.462z" stroke="#000" stroke-width=".29"/><path d="M45.569 17.676c.584.731.402 5.842-.292 9.505-.555 2.93-4.639 6.973-8.163 9.827s-5.58 1.068-5.58 1.068l-5.756-5.388c.04.122 1.763.29 2.245-.685-2.315-3.079 4.334-4.127 6.49-3.667 3.15-.57-.604-4.734 2.149-7.59l8.907-3.07z" fill="#0b1728"/><path d="M36.75 3.042c-2.865.07-4.883 1.818-4.791 5.122l-.017 2.476c-.496 1.083-.92 1.54-.92 2.17 0 .602.14.726 1.006.943 0 0-.453 4.017 2.297 3.887 2.458-1.401 3.744-1.15 4.521-1.772.777-.622.035.927.23 1.722.196.794 1.801 1.18 1.801 1.18l2.551-1.817-1.957-4.044c.683-.308 1.661-.959 2.074-2.281.666-2.136.557-4.44-2.109-6.308-.833-.584-3.384-1.31-4.686-1.277z" fill="#f6e6cc" stroke="#000" stroke-linecap="round" stroke-linejoin="round" stroke-width=".971"/><path d="M38.197 8.763l-5.142.155-.962.046.526 3.197.282-.054-.145-2.598 5.123-.39c1.109-.08.917.83.998 1.462.094.728-1.026.999-.462.908.563-.091 1.125-.542.843-1.907-.141-.683-.618-.838-1.061-.818z" fill="#000c00"/><path d="M3.08 7.962l4.964 1.024 4.527 15.207-4.819 1.17L3.08 7.961z" fill="#fff" stroke="#000" stroke-linecap="round" stroke-linejoin="round" stroke-width=".871"/><path d="M17.98 26.887l-4.38-1.462-6.863 2.928 8.954 2.439 2.289-3.905z" fill="#4d4d4d" stroke="#000" stroke-width=".273"/><path d="M28.314 24.077c-1.768.564-2.363 1.049-3.548 1.182s-3.132-.157-4.074-.444c-.942-.288-1.63-.588-2.547-.905-.917-.317-3.072-.367-3.765 1.953 0 0 .287.633 2.274.635-1.007.694.108 1.71 1.2.749.211-.392.831-1.108 2.215-.857s6.836 1.581 7.389 1.564c5.17-.162 10.187-.16 8.646-4.1-.304-3.452-3.2-2.156-3.854-1.455-1.497-.075-2.168 1.114-3.936 1.678z" fill="#f6e6cc" stroke="#000" stroke-linecap="round" stroke-linejoin="round"/><path d="M42.899 16.861s2.04-1.268 3.062 1.071c1.022 2.34-1.467 4.68-3.95 5.85-2.482 1.17-6.315 3.459-6.315 3.459s-2.637 1.123-3.806.83c-1.168-.292-1.164-3.8-1.31-5.262-.146-1.463 3.164-1.9 4.624-2.34 1.46-.438 6.081-3.02 5.643-2.728z" fill="#162d50"/><path d="M35.417 12.368c-.061.186-.301.652-1.28 1.362-.55.4-1.204.456-1.773.395v.487c.857.216 1.673-.052 2.111-.376.614-.455.89-1.63.942-1.868z" fill="#001400"/><path d="M32.257 10.265l1.532.621s-1.058-2.448-1.532-.621z" color="#000"/><path d="M27.901 31.851l-8.872 2.186c-2.35.605-2.464 1.923.542 5.971 3.006 4.048 1.298 4.892 2.064 5.464 2.254 1.687 6.093-2.633 6.093-2.633l-2.892-4.416s8.623.187 9.453-.021c.829-.208-4.007-4.682-4.629-4.89z" color="#000" fill="#025"/><rect transform="rotate(7.589) skewX(.009)" x="48.136" y="7.512" width="3.26" height="13.145" ry="1.866" color="#000" stroke="#000" stroke-width=".347"/><path d="M33.549 30.078a4.877 4.877 0 0 0-4.879 4.896v2.088a4.877 4.877 0 0 0 4.879 4.896h10.575a4.877 4.877 0 0 0 4.879-4.896v-2.088a4.877 4.877 0 0 0-4.879-4.896H33.549zm-.662 2.906h12.071a3.125 3.125 0 0 1 3.129 3.134v1.335c0 .554-.14 1.066-.39 1.517-.18-.674-1.24-1.195-2.54-1.2l-12.506-.036c-1.263 0-2.315.472-2.548 1.117a3.122 3.122 0 0 1-.336-1.399v-1.335a3.117 3.117 0 0 1 3.12-3.133zM31.536 3.047s-.61 1.908.525 1.985c1.037.664 2.003.62 2.003.62s.943-.164 1.663-.37c-.013.624.31 1.55.31 1.55s-.16.762.53 1.352c-.19.54 1.513.077 1.513.077s1.362-.425 1.437.927c.076 1.351.711 3.456.711 3.456-.828 2.105 2.79 3.891 2.573 1.274 0 0 .877-2.259 1.218-3.804.34-1.544.265-4.556-1.06-5.638-1.323-1.08-1.583-3.52-7.579-2.844-1.891.58-3.504 2.613-3.844 1.416z" color="#000"/></g></svg>