<svg viewBox="0 0 50 50" xmlns="http://www.w3.org/2000/svg"><g transform="matrix(1 0 0 1.0015 0 -1006.026)"><path d="M21.945 1047l-5.346 2.47s-1.754 1.369.078 2.707 5.34.956 5.34.956l5.01-2.49s1.7-2.033.617-2.979c-1.082-.946-6.017-.464-5.699-.664z" color="#000"/><path d="M17.339 1031.3l-.146 1.752-1.898 1.022-8.615-.73v-2.482l10.659.438zM3.94 1019.5s-7.671 2.269-1.606 13.142c.1.18-1.606-6.279 3.212-7.155 4.82-.876-1.168-5.84-1.606-5.987z"/><path d="M1.424 1012.5l1.46-.658 6.863 10.88-1.972 6.935-1.678-.22-4.673-16.937z" stroke="#000" stroke-width=".29"/><path d="M45.667 1021.7c.584.73.402 5.834-.292 9.491-.555 2.926-4.639 6.962-8.163 9.812-3.524 2.85-5.58 1.066-5.58 1.066l-3.606-8.697.459-.38 8.275-8.226 8.907-3.066z" fill="#0b1728"/><path d="M37.239 1006.6c-2.865.07-4.883 1.815-4.791 5.114l-.017 3.057c-.79.106-1.994.367-1.994.997 0 .6 1.215 1.31 2.08 1.527l.05 1.539s1.501 1.717 3.348 1.939l1.249 3.97 6.753-4.253-1.957-4.038c.683-.308 1.661-.957 2.074-2.278.666-2.132.557-4.433-2.109-6.299-.833-.583-3.384-1.307-4.686-1.275z" fill="#f6e6cc" stroke="#000" stroke-linecap="round" stroke-linejoin="round" stroke-width=".871"/><path d="M41.726 1020.3s3.212-.876 4.234 1.46c1.022 2.336.292 4.673-2.19 5.84-2.482 1.169-9.345 4.235-9.345 4.235s-.292.438-1.46.146c-1.168-.292-2.044-4.672-2.19-6.132-.146-1.46 3.066-2.19 4.527-2.629 1.46-.438 6.862-3.212 6.424-2.92z" fill="#0b1728"/><path d="M38.295 1012.8l-5.142.154-.962.046.526 3.193.282-.054-.145-2.594 5.123-.389c1.109-.08.917.828.998 1.459.094.727-1.026.998-.462.907.563-.091 1.125-.541.843-1.905-.141-.681-.618-.836-1.061-.816z" fill="#000c00"/><path d="M3.177 1012l4.965 1.022 4.527 15.186-4.82 1.168L3.178 1012z" fill="#fff" stroke="#000" stroke-linecap="round" stroke-linejoin="round" stroke-width=".871"/><path d="M17.882 1030.8l-4.38-1.46-6.863 1.46 9.345 1.752 1.898-1.752z" fill="#4d4d4d" stroke="#000" stroke-width=".273"/><path d="M27.929 1026.8c-.664.012-2.463.256-2.938.511-1.898 1.022-3.939 3.327-3.939 3.327l-.85-.639-.005-.025-.9-.99c-.114.171-4.573-.039-6.285.11 0 0-.3 1.315 1.688 1.317.776-.208 1.385-.046 2.138.166l-2.138 2.61s1.155.944 2.177-.954c.21-.391 1.612-.211 1.824-.27.312.98.776 2.05 1.33 2.05 1.022 0 12.411-1.172 13.141-2.925.73-1.752-1.46-4.526-1.606-4.672 0 0-.61.215-2.601.236l-1.036.148h0z" fill="#f6e6cc" stroke="#000" stroke-linecap="round" stroke-linejoin="round" stroke-width=".871"/><path d="M35.515 1016.4c-.061.186-.301.651-1.28 1.36-.55.399-1.204.455-1.773.394v.487c.857.216 1.673-.052 2.111-.376.614-.454.89-1.627.942-1.865z" fill="#001400"/><path d="M32.355 1014.3l1.532.62s-1.058-2.444-1.532-.62z" color="#000"/><path d="M28.292 1034l-8.872 2.28c-2.35.604-5.493 2.799-2.487 6.84 3.005 4.043 3.546 5.958 4.311 6.53 2.254 1.685 6.582-2.824 6.582-2.824l-2.892-4.41s8.623.187 9.452-.021c.83-.207-5.472-8.188-6.094-8.395z" color="#000" fill="#6c5d53" stroke="#000" stroke-linecap="round" stroke-linejoin="round" stroke-width=".871"/><rect transform="rotate(7.576) skewX(-.013)" x="181.12" y="1004.9" width="3.26" height="13.126" ry="1.864" color="#000" stroke="#000" stroke-width=".347"/><path d="M29.547 1032.8c-2.551 0-4.613 2.08-4.613 4.642h18.403c0-2.562-2.06-4.642-4.612-4.642h-9.178zm0 .76h9.178c2.144 0 3.857 1.726 3.857 3.882H25.69c0-2.156 1.712-3.883 3.857-3.883z" color="#000" fill="#fff" style="block-progression:tb;text-indent:0;text-transform:none"/><path d="M28.858 1033.4a4.873 4.873 0 0 0-4.879 4.888v2.086a4.873 4.873 0 0 0 4.879 4.888h10.575a4.873 4.873 0 0 0 4.879-4.888v-2.086a4.873 4.873 0 0 0-4.879-4.888H28.858zm-.662 2.902h12.071a3.123 3.123 0 0 1 3.129 3.129v1.333c0 .553-.14 1.065-.39 1.515-.18-.673-1.24-1.193-2.54-1.198l-12.506-.037c-1.263 0-2.315.472-2.548 1.116a3.113 3.113 0 0 1-.336-1.397v-1.333a3.115 3.115 0 0 1 3.12-3.129zM32.122 1006.8s-.757 1.465.378 1.542c1.135.078 1.173-.308 1.173-.308s2.8-1.041 3.177.656c.379 1.696-.227 1.889-.227 1.889s.72.81.53 1.35c-.19.54 1.513.077 1.513.077s1.362-.424 1.437.925c.076 1.35.076 1.89.076 1.89l2.572 1.272s1.513-.694 1.854-2.236c.34-1.543.265-4.55-1.06-5.63-1.323-1.08-4.955-2.93-6.846-2.352-1.891.578-4.237 2.12-4.577.925z" color="#000"/></g></svg>