<svg width="345.6" height="345.6" clip-rule="evenodd" fill-rule="evenodd" image-rendering="optimizeQuality" shape-rendering="geometricPrecision" text-rendering="geometricPrecision" viewBox="0 0 9144 9144" xmlns="http://www.w3.org/2000/svg"><defs><linearGradient id="a" x1="10043" x2="-898.9" y1="6303" y2="2841" gradientUnits="userSpaceOnUse"><stop stop-color="#48CFAE" offset="0"/><stop stop-color="#4FC0E8" offset="1"/></linearGradient></defs><path fill="url(#a)" d="M0 0h9144v9144H0z"/><path d="M4846 5772c49 0 88 39 88 88 0 48-39 88-88 88H2455c-48 0-88-40-88-88V2791c0-14 3-28 9-39v-1l1-1 1-1v-1l1-1v-1l1-1 1-1v-1l1-1c1-1 1-2 2-3v-1h1l1-1c1-2 2-4 4-5v-1l1-1c1-1 3-2 4-3l1-2c2-1 4-3 5-4l2-1v-1h1l3-2 1-1h1l1-1h1v-1h1l1-1 1-1h2v-1c12-5 25-9 39-9h4228c49 0 88 40 88 89v2213c0 49-39 89-88 89s-88-40-88-89V3003L4632 4967c-35 34-91 34-125 0L2544 3003v2769h2302zm854-989h495c49 0 88 39 88 88v406h406c48 0 88 39 88 88v495c0 48-40 88-88 88h-406v405c0 49-39 89-88 89h-495c-49 0-88-40-88-89v-405h-406c-48 0-88-40-88-88v-495c0-49 40-88 88-88h406v-406c0-49 39-88 88-88zm407 176h-319v406c0 49-39 88-88 88h-405v318h405c49 0 88 40 88 89v405h319v-405c0-49 39-89 88-89h405v-318h-405c-49 0-88-39-88-88v-406zm363-2080H2668l1901 1901 1901-1901z" fill="#fff" fill-rule="nonzero"/></svg>