<svg width="345.6" height="345.6" clip-rule="evenodd" fill-rule="evenodd" image-rendering="optimizeQuality" shape-rendering="geometricPrecision" text-rendering="geometricPrecision" viewBox="0 0 9144 9144" xmlns="http://www.w3.org/2000/svg"><defs><style>.fil1{fill:#fff;fill-rule:nonzero}</style><linearGradient id="a" x1="10043" x2="-898.9" y1="6303" y2="2841" gradientUnits="userSpaceOnUse"><stop stop-color="#48CFAE" offset="0"/><stop stop-color="#4FC0E8" offset="1"/></linearGradient></defs><path fill="url(#a)" d="M0 0h9144v9144H0z"/><path class="fil1" d="M2540 2980h4064c47 0 85 38 85 84v3016c0 46-38 84-85 84H2540c-47 0-85-38-85-84V3064c0-46 38-84 85-84zm3979 169H2625v2846h3894V3149z"/><path class="fil1" d="M2480 3124c-33-33-33-86 0-119s86-33 120-1l2032 2032c33 33 33 86 0 119s-86 33-120 1L2480 3124z"/><path class="fil1" d="M6544 3004c34-32 87-32 120 1s33 86 0 119L4632 5156c-33 32-87 32-120-1s-33-86 1-119l2031-2032z"/></svg>