<svg width="500" height="500" xmlns="http://www.w3.org/2000/svg"><path d="M250 19.42l199.69 115.29v230.58L250 480.58 50.31 365.29V134.71z" fill="none" stroke="#555" stroke-linecap="round" stroke-width="18.446"/><path d="M250 150.09c-32.861 0-59.5 26.639-59.5 59.5-.707 29.463 18.446 40.953 24.236 51.641 3.118 9.753 5.462 47.923 5.871 51.301a14.838 14.838 0 0 1 7.17-1.84h44.445c2.597 0 5.04.669 7.17 1.84.409-3.378 2.753-41.548 5.871-51.301 5.79-10.687 24.943-22.178 24.236-51.641 0-32.861-26.639-59.5-59.5-59.5zm-22.223 165.6c-5.553 0-9.945 4.393-9.945 9.945v14.334c0 5.553 4.392 9.946 9.945 9.946h44.445c5.553 0 9.945-4.393 9.945-9.946v-14.334c0-5.552-4.392-9.945-9.945-9.945z" fill="#555"/></svg>