<svg width="500" height="500" xmlns="http://www.w3.org/2000/svg"><path d="M250 19.42l199.69 115.29v230.58L250 480.58 50.31 365.29V134.71z" fill="none" stroke="#555" stroke-linecap="round" stroke-width="18.446"/><g fill="#555" fill-rule="evenodd" color="#000"><path d="M185.61 187.85a9.94 9.94 0 0 0-6.832 3.006l-51.805 51.805a9.94 9.94 0 0 0 0 14.055l51.805 51.805a9.94 9.94 0 1 0 14.055-14.055l-44.775-44.777 44.775-44.777a9.94 9.94 0 0 0-7.223-17.06zM314.09 187.85a9.94 9.94 0 0 0-6.924 17.066l44.775 44.777-44.775 44.777a9.94 9.94 0 1 0 14.055 14.055l51.805-51.805a9.94 9.94 0 0 0 0-14.055l-51.805-51.805a9.94 9.94 0 0 0-7.13-3.011zM262.01 172.16a9.94 9.94 0 0 0-9.64 8.075l-27.862 135.57a9.94 9.94 0 1 0 19.471 4.002l27.861-135.57a9.94 9.94 0 0 0-9.83-12.076z" style="block-progression:tb;isolation:auto;mix-blend-mode:normal;text-decoration-color:#000;text-decoration-line:none;text-decoration-style:solid;text-indent:0;text-transform:none;white-space:normal"/></g></svg>