<svg viewBox="-53 -32 906 1984" xmlns="http://www.w3.org/2000/svg"><path d="M428.87 10.236c16.97-1.53 34.05-1.16 51.07-.7 5.71.59 11.46.86 17.12 1.87 19.92 3.2 39.84 7.5 58.32 15.8 15.51 6.12 29.93 14.83 42.95 25.23 7.47 6.18 15.78 11.34 24.53 15.51 7.53 3.42 15.63 6.16 24.02 5.74 5.39.28 11.92-.8 15.17-5.56 3.31-4.89-1.5-9.9-.93-15.05 4.89-.18 8.46 3.75 11.82 6.76 14.54 15.29 24.25 34.65 30.06 54.81 2.27 8.54 1.52 17.48 1.59 26.22.13 14.66-5.52 28.43-9.56 42.28-1.49 5.55-4.19 10.7-5.5 16.32-1.42 5.93-2.86 11.87-3.89 17.88-.39 5.1-.76 10.21-1.11 15.32-1.42 15.77-2.28 31.61-4.21 47.33-.82 10.4-2.79 20.66-4.02 31.01-1.06 5.26-1.75 10.71-4.33 15.5-.67-.15-2-.44-2.67-.59-1.45-4.87-3.78-9.48-4.64-14.52-1.36-7.89-.21-15.9-.57-23.84 2-22.49 4.66-45.13 2.48-67.71-.51-9.32-2.14-18.54-3.76-27.72-2.01-10.99-5.54-21.92-12.07-31.09-3.66-5.06-8.68-9.37-14.78-11.09-7.52-2.13-15.35-2.9-23.12-3.53-22.83-.84-46.02-.3-68.24 5.45-10.06 2.44-18.1 10.38-28.66 11.1-8.81.79-16.82-3.66-24.12-7.98-9.87-6-21.67-6.62-32.76-8.58-20.26-2.43-40.88-3.05-61.14-.25-7.49 1.34-15.64 3.01-21.29 8.49-5.95 6.99-8.04 16.32-9.57 25.14-2.22 15.93-2.75 32.03-2.67 48.1.14 7-.48 14.05.68 21 .22 3.33-.27 6.65-.48 9.98-.39 16.9.52 33.86-.9 50.73-.77 4.14-2.72 7.94-5.69 10.92-2.96-2.04-4.25-5.51-5.03-8.87-2.34-12.11-3.87-24.42-3.79-36.77-1.3-14.26-.5-28.59-1.08-42.88-1.21-14.63.16-29.35-.79-44-.87-7.61-3.31-15-6.64-21.87-3.65-8.03-10.44-14.27-13.34-22.69-3.08-9.98-4.97-20.38-9.12-30.01-2.42-4.25-5.61-9.86-11.32-9.32-6.52-.67-11.29 4.34-16.47 7.35-1.63.72-3.82 2.84-5.03.43 1.27-4.66 4.4-8.52 7.21-12.35 6.48-7.77 13.75-15.03 22.32-20.5 6.18-4.09 14.28-5 19.39-10.73.02-.89.01-1.78-.03-2.67-4.29-.55-8.68-.63-12.95.07-13.45 3.26-25.82 10.15-39.59 12.19-1.73.28-4.26.23-4.39-2.06 2.79-4.64 7.74-7.31 12.02-10.39 16.98-10.35 34.99-19.4 54.29-24.52 32.53-8.27 66.58-5.15 99.26-12.35 3.29-.76 6.4-2.07 9.53-3.29.04-.54.12-1.61.15-2.15-5.96-3.47-13.13-2.57-19.72-3.01-7.95-.84-16.19-.55-23.77-3.45-1.31-.22-1.95-1.31-2.11-2.53 6.82-3.13 14.49-3.53 21.87-3.91z" fill="#582200" stroke="#582200" stroke-width=".5"/><path d="M397.92 146.16c20.26-2.8 40.88-2.18 61.14.25 11.09 1.96 22.89 2.58 32.76 8.58 7.3 4.32 15.31 8.77 24.12 7.98 10.56-.72 18.6-8.66 28.66-11.1 22.22-5.75 45.41-6.29 68.24-5.45 7.77.63 15.6 1.4 23.12 3.53 6.1 1.72 11.12 6.03 14.78 11.09 6.53 9.17 10.06 20.1 12.07 31.09 1.62 9.18 3.25 18.4 3.76 27.72 2.18 22.58-.48 45.22-2.48 67.71-1.03 4.05-1 8.23-.93 12.37.17 5.62-2.51 10.71-4.5 15.8-8.23 19.06-18.72 37.15-31.22 53.73-7.9 9.98-16.08 20.08-26.74 27.26-4.65 3.15-9.29 6.47-14.69 8.19-3.01-2.46-1.26-6.29-.51-9.37 3.48-11.59 6.28-23.51 6.57-35.66-.04-6.68-1.16-14.1-6.31-18.88-5.8-5.75-14.77-5.9-22.33-4.62-11.61 1.72-21.5 8.77-32.91 11.17 1.41-3.14 5.03-6.02 3.54-9.76-5.55 2.77-9.88 7.98-16.18 9.13-7.39 1.04-14.9-1.16-21.36-4.67-4.1-2.1-6.05-6.9-5.61-11.34.5-6.19 2.48-12.14 3.88-18.16 1.34-2.67 2.9-5.3 3.5-8.26 1.15-10.64.26-21.4 1.33-32.04 9.83.03 19.67-.25 29.49.17.44 9.1.07 18.21.15 27.32-.6 10.42 9.17 20.14 19.57 19.58 28.7-.05 57.4-.05 86.11 0 9.11.46 17.73-6.95 18.97-15.93.89-5.86.31-11.81.45-17.7-.2-8.17.69-16.43-1.03-24.48 3.03-.37 7.01.64 9.22-1.97 1.44-3.49.76-7.47-.18-11.01-9.5-.49-19.01.04-28.49-.84-15.65.86-31.33.48-47 .55-13.01-.04-26.03.1-39.03.03-5.63-.16-11.1 2.75-14.46 7.2-1.8 2.4-2.61 5.42-4.61 7.68-9.94.45-19.92.17-29.87.1-2.75-7.33-8.62-14.55-17.02-14.92-24.67-.14-49.34-.08-74.01-.09-6.34-.15-12.68-.99-19.01-.28-7.91.92-15.94-.45-23.8 1.03-1.16-6.95-.54-14-.68-21-.08-16.07.45-32.17 2.67-48.1 1.53-8.82 3.62-18.15 9.57-25.14 5.65-5.48 13.8-7.15 21.29-8.49m21.25 93.08c-1.78.71-3 2.21-4.1 3.7 2.31 2.39 5.87 1.53 8.82 1.31 6.24-1.3 12.64-1.07 18.97-1.02 9.77-.15 19.32 2.35 29.04 2.84 3.88-.04 8.37-2.8 7.66-7.22.82-4.41-3.72-6.91-7.2-8.19-7.44-.61-14.95-.43-22.41-.11-10.58 1.48-21.07 4.15-30.78 8.69m135.24-8.57c-3.51 1.2-7.64 4.02-7.21 8.23-.4 3.76 3.34 6.53 6.7 7.1 10.05-.19 19.91-2.91 29.99-2.77 6.67-.11 13.39-.2 19.96 1.13 2.47-.04 6.08 1.11 7.64-1.42-.67-2.08-2.75-3.16-4.55-4.1-9.21-4.42-19.3-6.57-29.33-8.21-7.71-.47-15.5-.56-23.2.04z" fill="#ffae6e" stroke="#ffae6e" stroke-width=".5"/><path d="M419.17 239.24c9.71-4.54 20.2-7.21 30.78-8.69 7.46-.32 14.97-.5 22.41.11 3.48 1.28 8.02 3.78 7.2 8.19.71 4.42-3.78 7.18-7.66 7.22-9.72-.49-19.27-2.99-29.04-2.84-6.33-.05-12.73-.28-18.97 1.02-2.95.22-6.51 1.08-8.82-1.31 1.1-1.49 2.32-2.99 4.1-3.7zM554.41 230.67c7.7-.6 15.49-.51 23.2-.04 10.03 1.64 20.12 3.79 29.33 8.21 1.8.94 3.88 2.02 4.55 4.1-1.56 2.53-5.17 1.38-7.64 1.42-6.57-1.33-13.29-1.24-19.96-1.13-10.08-.14-19.94 2.58-29.99 2.77-3.36-.57-7.1-3.34-6.7-7.1-.43-4.21 3.7-7.03 7.21-8.23z" fill="#562100" stroke="#562100" stroke-width=".5"/><path d="M348.1 232c.58 14.29-.22 28.62 1.08 42.88-.08 12.35 1.45 24.66 3.79 36.77-13.4-5.88-21.73-19.34-25.84-32.89-2.41-7.38-2.13-15.23-1.78-22.88 1.17-7.75 4.6-15.84 11.41-20.25 3.35-2.3 7.45-2.86 11.34-3.63zM680.32 280c1.93-15.72 2.79-31.56 4.21-47.33 7.04 1.5 12.49 6.98 15.32 13.42 3.9 7.66 2.81 16.5 2.67 24.78-1.32 10.9-6.11 21.28-13 29.79a34.7 34.7 0 0 1-13.22 10.35c1.23-10.35 3.2-20.61 4.02-31.01z" fill="#ffae6e" stroke="#ffae6e" stroke-width=".5"/><path d="M365.07 248.89c7.86-1.48 15.89-.11 23.8-1.03 6.33-.71 12.67.13 19.01.28 24.67.01 49.34-.05 74.01.09 8.4.37 14.27 7.59 17.02 14.92 9.95.07 19.93.35 29.87-.1 2-2.26 2.81-5.28 4.61-7.68 3.36-4.45 8.83-7.36 14.46-7.2 13 .07 26.02-.07 39.03-.03 15.67-.07 31.35.31 47-.55 9.48.88 18.99.35 28.49.84.94 3.54 1.62 7.52.18 11.01-2.21 2.61-6.19 1.6-9.22 1.97 1.72 8.05.83 16.31 1.03 24.48-.14 5.89.44 11.84-.45 17.7-1.24 8.98-9.86 16.39-18.97 15.93-28.71-.05-57.41-.05-86.11 0-10.4.56-20.17-9.16-19.57-19.58-.08-9.11.29-18.22-.15-27.32-9.82-.42-19.66-.14-29.49-.17-1.07 10.64-.18 21.4-1.33 32.04-.6 2.96-2.16 5.59-3.5 8.26a68.047 68.047 0 0 1-6.78 4.92c-5.37 2.53-11.39 1.76-17.13 1.82-26.02 0-52.05-.03-78.07.02-6.63.3-12.83-3.8-16.28-9.26-3.71-6.11-2.99-13.52-3.01-20.36.22-9.49-.67-19.07 1.01-28.48-3.5.02-7.22 0-9.94-2.54.21-3.33.7-6.65.48-9.98m18.1 17.98c-.04 11.35-.05 22.7 0 34.05-.15 5.5 5.41 9.77 10.68 9.36 28.35.01 56.71.02 85.05-.01 5.22.34 10.73-3.92 10.57-9.36.04-11.02-.03-22.04.03-33.06.62-5.32-4.22-10.76-9.59-10.56-6.8-.07-13.6.05-20.4-.07-.49.52-.97 1.05-1.45 1.58-1.89-.44-3.82-.66-5.75-.8-3.69-1.67-8.49-1.62-11.98.54.14-.31.44-.93.58-1.24-16.02-.05-32.05-.02-48.07-.01-5.16-.31-10.04 4.35-9.67 9.58m160.3-8.38c-3.15 1.98-5.15 5.62-4.97 9.36-.01 10.69-.03 21.39.01 32.08-.31 5.59 4.74 10.64 10.34 10.33 28.69.03 57.38.06 86.07-.01 5.61.3 10.34-4.81 10.22-10.31.08-10.69.05-21.4.01-32.09.27-5.46-4.54-11.14-10.2-10.58-16.16-.02-32.32.09-48.47-.06-.47.54-.93 1.08-1.39 1.63-1.9-.5-3.85-.7-5.79-.84-3.75-1.78-8.42-1.38-12.09.39.17-.27.51-.8.68-1.06-5.68-.16-11.36.01-17.03-.08-2.48.11-5.26-.34-7.39 1.24z" fill="#2e2f2f" stroke="#2e2f2f" stroke-width=".5"/><path d="M383.17 266.87c-.37-5.23 4.51-9.89 9.67-9.58 16.02-.01 32.05-.04 48.07.01-.14.31-.44.93-.58 1.24-2.23 3.48-4.82 7.05-4.98 11.35-.32 5.81-.69 12.03 2.19 17.33 2.29 4.4 6.09 9 11.4 9.37 5.92.66 11.21-3.77 13.5-8.93 2.56-5.96 3.62-12.75 1.98-19.1-.85-4.08-2.91-7.74-4.91-11.34 6.8.12 13.6 0 20.4.07 5.37-.2 10.21 5.24 9.59 10.56-.06 11.02.01 22.04-.03 33.06.16 5.44-5.35 9.7-10.57 9.36-28.34.03-56.7.02-85.05.01-5.27.41-10.83-3.86-10.68-9.36-.05-11.35-.04-22.7 0-34.05z" fill="#ffae6e" stroke="#ffae6e" stroke-width=".5"/><path d="M440.33 258.54c3.49-2.16 8.29-2.21 11.98-.54-1.38 1.67-3.09 3.21-3.82 5.31-.64 3.92-.78 8.6 2.38 11.55 1.25 1.71 3.52 1.82 5.42 1.37 3.65-1.92 5.27-6.41 4.8-10.34-.48-2.56-1.85-4.81-3.03-7.09.48-.53.96-1.06 1.45-1.58 2 3.6 4.06 7.26 4.91 11.34 1.64 6.35.58 13.14-1.98 19.1-2.29 5.16-7.58 9.59-13.5 8.93-5.31-.37-9.11-4.97-11.4-9.37-2.88-5.3-2.51-11.52-2.19-17.33.16-4.3 2.75-7.87 4.98-11.35z" fill="#172627" stroke="#172627" stroke-width=".5"/><path d="M543.47 258.49c2.13-1.58 4.91-1.13 7.39-1.24 5.67.09 11.35-.08 17.03.08-.17.26-.51.79-.68 1.06-4.42 6.35-6.78 14.48-4.97 22.14 1.07 5.31 3.36 10.85 7.95 14.04 4.65 3.37 11.78 2.62 15.4-1.95 6.46-6.43 6.69-16.25 5.49-24.71-.72-3.87-2.84-7.25-4.6-10.7 16.15.15 32.31.04 48.47.06 5.66-.56 10.47 5.12 10.2 10.58.04 10.69.07 21.4-.01 32.09.12 5.5-4.61 10.61-10.22 10.31-28.69.07-57.38.04-86.07.01-5.6.31-10.65-4.74-10.34-10.33-.04-10.69-.02-21.39-.01-32.08-.18-3.74 1.82-7.38 4.97-9.36z" fill="#ffae6e" stroke="#ffae6e" stroke-width=".5"/><path d="M567.21 258.39c3.67-1.77 8.34-2.17 12.09-.39-1.72 2.06-4.07 4.08-4.04 7-.16 3.2-.42 6.97 2.11 9.41 1.35 1.86 3.75 2.44 5.92 1.83 2.99-1.66 4.51-5.08 4.94-8.34.21-3.32-1.76-6.2-3.14-9.06.46-.55.92-1.09 1.39-1.63 1.76 3.45 3.88 6.83 4.6 10.7 1.2 8.46.97 18.28-5.49 24.71-3.62 4.57-10.75 5.32-15.4 1.95-4.59-3.19-6.88-8.73-7.95-14.04-1.81-7.66.55-15.79 4.97-22.14z" fill="#172527" stroke="#172527" stroke-width=".5"/><path d="M452.31 258c1.93.14 3.86.36 5.75.8 1.18 2.28 2.55 4.53 3.03 7.09.47 3.93-1.15 8.42-4.8 10.34-1.9.45-4.17.34-5.42-1.37-3.16-2.95-3.02-7.63-2.38-11.55.73-2.1 2.44-3.64 3.82-5.31zM579.3 258c1.94.14 3.89.34 5.79.84 1.38 2.86 3.35 5.74 3.14 9.06-.43 3.26-1.95 6.68-4.94 8.34-2.17.61-4.57.03-5.92-1.83-2.53-2.44-2.27-6.21-2.11-9.41-.03-2.92 2.32-4.94 4.04-7z" fill="#fff" stroke="#fff" stroke-width=".5"/><path d="M363.69 309.6c1.42-16.87.51-33.83.9-50.73 2.72 2.54 6.44 2.56 9.94 2.54-1.68 9.41-.79 18.99-1.01 28.48.02 6.84-.7 14.25 3.01 20.36 3.45 5.46 9.65 9.56 16.28 9.26 26.02-.05 52.05-.02 78.07-.02 5.74-.06 11.76.71 17.13-1.82.34.16 1.02.47 1.36.62-.67 8.91-3.8 17.7-1.89 26.7-10.6-2.14-21.32-5.49-32.25-3.67-8.65 1.02-16.92 6.13-20.83 14.04-4.36 9.23-4.17 19.63-5.43 29.55-.56 3.09-1.15 7.22-4.6 8.38-2.94.5-5.59-1.47-7.92-3-10.33-7.88-19.38-17.33-27.54-27.42-10.07-12.58-18.23-26.95-22.28-42.64-.87-3.57-1.87-7.11-2.94-10.63z" fill="#ffae6e" stroke="#ffae6e" stroke-width=".5"/><path d="M663.16 299.93c-.07-4.14-.1-8.32.93-12.37.36 7.94-.79 15.95.57 23.84.86 5.04 3.19 9.65 4.64 14.52-1.43 8.38-3.76 16.66-6.28 24.79-3.12 9.55-6.86 19.17-13.33 27-10.65 12.47-23.83 22.43-37.27 31.68-17.73 11.97-36.49 22.45-56.09 31.05-2.22.98-4.53 1.75-6.84 2.48-.87 1.8-1.39 3.73-1.85 5.67-16.53 8.53-33.13 16.93-49.79 25.2-6.3 3.07-12.35 6.71-18.99 9.02-.47-13.68.41-27.4-.31-41.09-17.02-6.73-33.32-15.2-49.1-24.45-17.87-10.87-35.69-22.51-49.81-38.14-6.35-6.69-9.77-15.41-13.07-23.85-3.91-11.12-6.67-22.63-8.99-34.17l.42-.59c2.97-2.98 4.92-6.78 5.69-10.92 1.07 3.52 2.07 7.06 2.94 10.63 4.05 15.69 12.21 30.06 22.28 42.64 8.16 10.09 17.21 19.54 27.54 27.42 2.33 1.53 4.98 3.5 7.92 3 3.45-1.16 4.04-5.29 4.6-8.38 1.26-9.92 1.07-20.32 5.43-29.55 3.91-7.91 12.18-13.02 20.83-14.04 10.93-1.82 21.65 1.53 32.25 3.67-1.91-9 1.22-17.79 1.89-26.7-.34-.15-1.02-.46-1.36-.62 2.36-1.49 4.62-3.15 6.78-4.92-1.4 6.02-3.38 11.97-3.88 18.16-.44 4.44 1.51 9.24 5.61 11.34 6.46 3.51 13.97 5.71 21.36 4.67 6.3-1.15 10.63-6.36 16.18-9.13 1.49 3.74-2.13 6.62-3.54 9.76 11.41-2.4 21.3-9.45 32.91-11.17 7.56-1.28 16.53-1.13 22.33 4.62 5.15 4.78 6.27 12.2 6.31 18.88-.29 12.15-3.09 24.07-6.57 35.66-.75 3.08-2.5 6.91.51 9.37 5.4-1.72 10.04-5.04 14.69-8.19 10.66-7.18 18.84-17.28 26.74-27.26 12.5-16.58 22.99-34.67 31.22-53.73 1.99-5.09 4.67-10.18 4.5-15.8m-91.91 46.38c-14.65 3.66-27.39 12.97-42.37 15.64-9.11 1.41-18.41 2.58-27.63 1.47-11.92-1.73-22.95-6.84-34.35-10.49-5.3-1.56-11.46-3.44-16.69-.71-3.99 1.82-4.41 6.63-5.6 10.32-2.89 10.95-6.84 22.64-3.23 33.91 2.73 8.69 9.98 14.85 17.52 19.42 8.41 5.32 18.78 4.6 28.17 6.73 4.99 1.3 9.53-1.31 13.5-4 5.78-3.71 13.25-5.7 19.92-3.36 5.48 1.78 8.49 7.96 14.46 8.67 5.16.38 9.86-2.38 14.26-4.71 6.89-4.16 13.74-8.84 18.56-15.42 6.32-7.96 9.71-17.72 12.67-27.31 1.77-6.11 3.79-12.23 4.33-18.6.17-3.31.07-7.06-2.16-9.72-2.96-2.98-7.59-2.55-11.36-1.84z" fill="#e18d54" stroke="#e18d54" stroke-width=".5"/><path d="M571.25 346.31c3.77-.71 8.4-1.14 11.36 1.84 2.23 2.66 2.33 6.41 2.16 9.72-.54 6.37-2.56 12.49-4.33 18.6-2.96 9.59-6.35 19.35-12.67 27.31-4.82 6.58-11.67 11.26-18.56 15.42-4.4 2.33-9.1 5.09-14.26 4.71-5.97-.71-8.98-6.89-14.46-8.67-6.67-2.34-14.14-.35-19.92 3.36-3.97 2.69-8.51 5.3-13.5 4-9.39-2.13-19.76-1.41-28.17-6.73-7.54-4.57-14.79-10.73-17.52-19.42-3.61-11.27.34-22.96 3.23-33.91 1.19-3.69 1.61-8.5 5.6-10.32 5.23-2.73 11.39-.85 16.69.71 11.4 3.65 22.43 8.76 34.35 10.49 9.22 1.11 18.52-.06 27.63-1.47 14.98-2.67 27.72-11.98 42.37-15.64m-2 10.93c-8.46 1.66-13.87 9.04-21.43 12.54-8.42 3.86-17.73 5.09-26.83 6.32-11.97 1.4-24.1 2.28-36.12.99-7.18-.73-14.52-1.85-21-5.2-4.65-2.42-8.46-6.9-14.02-7.17-2.08-.39-4.16.28-5.29 2.11 1.76 2.41 3.88 4.75 6.92 5.44 13.99 3.93 27.61 10.42 42.4 10.38 10.4-.49 20.82-.98 31.12-2.58 8.12-1.29 16.39-2.19 24.2-4.91 3.69-1.28 6.48-4.09 9.6-6.31 4.91-3.49 11.67-2.02 16.56-5.52 1.09-.92 2.75-2.27 1.9-3.87-.98-3.47-5.31-2.86-8.01-2.22m-87.47 37.62c.34 2.91 3.12 4.39 5.4 5.72 5.67 2.99 11.47 6.1 17.91 7.02 5.03.7 10.21.73 15.19-.37 5.17-1.3 9.93-3.81 14.58-6.36 2.15-1.33 4.58-2.55 5.88-4.82-.25-.18-.76-.53-1.02-.71-6.28.81-11.92 4.25-18.22 5.12-9.06 2.14-18.49.79-27.27-1.89-4.17-1.19-8.01-3.65-12.45-3.71z" fill="#ffae6e" stroke="#ffae6e" stroke-width=".5"/><path d="M569.25 357.24c2.7-.64 7.03-1.25 8.01 2.22.85 1.6-.81 2.95-1.9 3.87-4.89 3.5-11.65 2.03-16.56 5.52-3.12 2.22-5.91 5.03-9.6 6.31-7.81 2.72-16.08 3.62-24.2 4.91-10.3 1.6-20.72 2.09-31.12 2.58-14.79.04-28.41-6.45-42.4-10.38-3.04-.69-5.16-3.03-6.92-5.44 1.13-1.83 3.21-2.5 5.29-2.11 5.56.27 9.37 4.75 14.02 7.17 6.48 3.35 13.82 4.47 21 5.2 12.02 1.29 24.15.41 36.12-.99 9.1-1.23 18.41-2.46 26.83-6.32 7.56-3.5 12.97-10.88 21.43-12.54zM481.78 394.86c4.44.06 8.28 2.52 12.45 3.71 8.78 2.68 18.21 4.03 27.27 1.89 6.3-.87 11.94-4.31 18.22-5.12.26.18.77.53 1.02.71-1.3 2.27-3.73 3.49-5.88 4.82-4.65 2.55-9.41 5.06-14.58 6.36-4.98 1.1-10.16 1.07-15.19.37-6.44-.92-12.24-4.03-17.91-7.02-2.28-1.33-5.06-2.81-5.4-5.72z" fill="#e18d54" stroke="#e18d54" stroke-width=".5"/><path d="M480.3 543.29c6.82-.49 13.65-.1 20.48-.26 8.41.09 16.82.08 25.22-.02 6.86.15 13.73-.12 20.58.19 3.03 9.75 1.47 20.28-2.49 29.51-3.02 6.93-7.9 12.88-13.54 17.85-1.79 1.71-3.91 3.18-5.16 5.36.16 2.65.87 5.22 1.42 7.82 2.23 9.53 2.87 19.35 4.79 28.95 2.19 20.61 5.02 41.19 6.1 61.91 2.01 13.73 2.07 27.64 3.58 41.42.52 12.95 1.17 25.9 2.02 38.84-.06 12.82 1.14 25.59 1.09 38.41-.24 15.2.17 30.42-.33 45.62-.85 8.8-.4 17.68-1.48 26.47-.67 11.82-1.69 23.59-3.32 35.32-1.77 12.49-4.53 24.81-8.02 36.93-3.34 7.47-5.89 15.89-12.23 21.46-3.76 3.32-9.59 1.89-12.73-1.56-5.68-6.05-8.04-14.26-11.08-21.79-1.75-6.67-3.32-13.39-4.91-20.1-2.26-9.46-2.91-19.19-4.38-28.77-3.18-37.32-4.32-74.83-2.86-112.25 1.37-44.59 4.47-89.12 9.14-133.48.75-9.16 2.61-18.24 2.4-27.47.8-2.16 1.53-4.37 1.78-6.67 1.43-10.44 2.79-20.93 5.56-31.12-7.6-7.04-15.69-14.17-19.51-24.1-3.89-8.88-4.42-19.12-2.12-28.47z" fill="#ff5353" stroke="#ff5353" stroke-width=".5"/><path d="M478.55 441.72c.72 13.69-.16 27.41.31 41.09 6.64-2.31 12.69-5.95 18.99-9.02 16.66-8.27 33.26-16.67 49.79-25.2.46-1.94.98-3.87 1.85-5.67-.6 10.3-.3 20.64-.23 30.96-.34 11.97 4.96 24.29 14.73 31.44.21.81.44 1.63.66 2.45-10.78 13.87-27.26 21.71-43.68 26.81 1.12 3.11 3.13 5.76 5.03 8.43-8.4.1-16.81.11-25.22.02 1.92-2.61 3.71-5.3 5.35-8.09-12.42-4.52-25.05-9.37-35.19-18.14-3.19-3.05-7.61-5.8-8.14-10.58 9.44-6.5 15.88-17.77 15.64-29.35-.35-11.72-.21-23.45.11-35.15z" fill="#ffae6e" stroke="#ffae6e" stroke-width=".5"/><path d="M419.94 484.98c7.94-7.05 18.3-11.49 28.96-11.78 2.19-.06 4.52-.32 6.54.77-.13 7.17-1.32 14.76 1.84 21.5 1.28 3.87 4.6 6.76 5.52 10.75.53 4.78 4.95 7.53 8.14 10.58 10.14 8.77 22.77 13.62 35.19 18.14a94.273 94.273 0 0 1-5.35 8.09c-6.83.16-13.66-.23-20.48.26-2.3 9.35-1.77 19.59 2.12 28.47-.61 4.27-3.45 7.54-6.64 10.2-3.02-3.42-7.15-5.52-10.81-8.15-17.83-12.46-35.03-27-45.8-46.24-4.47-7.7-8.03-16.5-7.21-25.56.62-6.38 3.46-12.49 7.98-17.03zM571.34 474.06c4.47-1.83 9.61-.66 14.23.07 7.9 1.68 15.26 5.42 21.26 10.83 6.72 6.4 9.71 16.37 7.8 25.43-1.57 8.07-5.66 15.36-9.96 22.26-11.57 17.51-27.98 31.15-45.22 42.81-3.36 2.38-7.66 4.22-9.11 8.4-.93-4.3-4.3-7.35-6.25-11.15 3.96-9.23 5.52-19.76 2.49-29.51-6.85-.31-13.72-.04-20.58-.19-1.9-2.67-3.91-5.32-5.03-8.43 16.42-5.1 32.9-12.94 43.68-26.81-.22-.82-.45-1.64-.66-2.45 3.08-4.8 6.3-9.71 7.35-15.42.59-5.26.23-10.57 0-15.84z" fill="#00ddd5" stroke="#00ddd5" stroke-width=".5"/><path d="M416.02 487.08c1.17-.92 2.5-1.63 3.92-2.1-4.52 4.54-7.36 10.65-7.98 17.03-.82 9.06 2.74 17.86 7.21 25.56 10.77 19.24 27.97 33.78 45.8 46.24 3.66 2.63 7.79 4.73 10.81 8.15 4.21 11.15 9.06 22.07 12.53 33.49 2.16 6.05 3 12.58 6.28 18.2.21 9.23-1.65 18.31-2.4 27.47-4.67 44.36-7.77 88.89-9.14 133.48-.59 2.16-1.21 4.33-1.65 6.55-4.13-6.71-6.89-14.12-10.81-20.94-7.19-14.76-15.72-28.81-24.08-42.94-6.87-10.97-13.98-21.84-21.99-32.03-6.79-6.89-12.5-14.86-20.13-20.91-7.85-7-16.93-12.7-26.89-16.15-3.02-1.09-6.91-2.55-7.23-6.27.68-2.8 2.63-5.05 4.47-7.18 7.92-8.41 16.69-16.03 24.05-24.96 5.34-5.99 12.49-10.23 17.16-16.85 1.53-2.27 2.12-5.95-.22-7.89-2.41-1.72-5.4-2.27-8.21-2.98-13.19-2.75-26.23-6.13-39.22-9.7-4.95-1.26-9.97-3.53-15.18-2.4-.05.5-.16 1.5-.21 2.01-3.16-15.22-9.64-30.51-21.71-40.77.43.11 1.29.35 1.72.46 11.88-10.08 24.55-19.19 36.78-28.84 15.45-11.9 30.92-23.77 46.32-35.73zM606.83 484.96c1.41.49 2.77 1.15 3.97 2.09 21.98 16.98 44 33.92 66 50.88 6.69 5.29 13.85 10.1 19.62 16.44 2.82 2.9 4.41 6.71 5.79 10.46-.18 4.58-1.53 9.22-4.92 12.48-6.97 7.19-17.26 8.97-26.53 11.45-13.1 3.75-26.35 6.92-39.53 10.38-6.02 1.55-12.39 1.62-18.22 3.89-2.58.91-4.45 3.76-3.79 6.5.71 3.68 3.45 6.48 6.17 8.86 6.29 5.34 11.8 11.52 17.75 17.24 4.81 4.54 8.65 9.99 13.47 14.53 2.83 2.84 6.03 5.4 8.25 8.78 2.05 2.78-.14 6.69-3.02 7.84-4.58 2.02-9.32 3.68-13.83 5.86-.26-5.67.56-11.41-.65-17.01-.57 10.04-.32 20.11-.73 30.16-4.37.23-8.75.19-13.12.17-1.23.16-2.59.19-3.54 1.1-12.88 11.8-22.17 26.75-31.63 41.27-9.22 14.76-17.33 30.18-25.48 45.55-5.89 12.92-12.42 25.55-17.86 38.68l-.61.71c.05-12.82-1.15-25.59-1.09-38.41-.85-12.94-1.5-25.89-2.02-38.84-1.51-13.78-1.57-27.69-3.58-41.42-1.08-20.72-3.91-41.3-6.1-61.91 1.61-1.57 3-3.4 3.47-5.63 3.92-14.79 9.25-29.16 15.27-43.2 1.45-4.18 5.75-6.02 9.11-8.4 17.24-11.66 33.65-25.3 45.22-42.81 4.3-6.9 8.39-14.19 9.96-22.26 1.91-9.06-1.08-19.03-7.8-25.43m-58.32 170.61c-.26 9.82-.49 19.71.11 29.52 29.19.25 58.39.15 87.58.07.46-9.85.29-19.75.05-29.62-29.24-.11-58.5-.16-87.74.03z" fill="#f2f2f2" stroke="#c8c8c8" stroke-linecap="round" stroke-linejoin="round"/><path d="M237.86 537.52c9.71.24 19.31-1.45 29.02-1.31 7.32-.62 14.66-.88 22.01-.98 15.53-1.08 31.04 5.46 42.31 15.96 12.07 10.26 18.55 25.55 21.71 40.77 4.71 23.46 9.39 46.93 13.84 70.45 6.89 32.92 13.42 65.91 20.1 98.88 2.6 11.7 4.28 23.63 7.77 35.12-10.87 1.36-21.77 2.52-32.7 3.14-8.71.88-17.57 1.03-26.04 3.41-4.33 1.2-8.28 4.48-9.32 8.99-.84 4.04 2.29 7.84 6.03 8.98 6.61 2.09 13.67 1.71 20.48 2.73-5.49 2.38-11.88 1.35-17.2 4.23-3.7 1.82-6.67 5.74-6.32 10 .87 4.77 5.87 7.05 10.22 7.61 8.01 1.16 16.1 1.83 24.19 2.21-7.22.84-14.57 1.02-21.64 2.88-3.95 1.01-7.76 3.7-9 7.74-.6 2.57-.56 5.72 1.49 7.67 2.52 2.6 6.28 3.24 9.71 3.77 7.42 1.04 14.91 1.74 22.42 1.67-3.01 1.07-6.11 2.02-8.86 3.69-4.99 3.19-5.66 11.69-.52 15.08 4.83 3.26 11.01 2.82 16.55 3.74 13.26 2.03 26.7 1.67 40.08 1.6 2.45 14.09 5.22 28.13 8.16 42.13 3.6 12.72 5.05 26.13 3.52 39.29-1.5 9.85-5.48 20.07-13.69 26.21-3.1 2.5-6.77 4.15-10.56 5.29.02.18.07.52.09.69-10.13 2.28-20.54 1.31-30.83 1.43-23.39.08-46.78-.03-70.17-.01-13.25-.76-26.56-.09-39.83-.36-26.67.09-53.34-.18-80.01-.08-7.12-.03-14.13-1.38-21.16-2.27-14.93-3.09-29.5-10.67-38.59-23.21-5.71-8.25-7.73-18.28-10.26-27.81 13.7-5.9 26.36-13.94 38.68-22.3 6.81-4.8 13.55-9.72 19.91-15.11 2.79-2.52 5.95-5.52 5.97-9.57.32-5.06-4.87-8.83-9.58-8.72-6.97-.32-12.55 4.52-18.91 6.56 7.1-5.88 15.33-10.39 21.73-17.09 2.65-2.6 3.87-6.62 2.56-10.17-2.5-4.62-8.55-6.13-13.34-4.62-6.3 1.85-11.96 5.3-17.95 7.9 6.07-5.61 13.56-9.54 19.12-15.71 2.55-2.62 3.45-6.9 1.8-10.2-2.84-4.61-8.99-5.29-13.78-3.84-6.57 1.93-12.5 5.48-18.56 8.58-9.15 5.39-18.76 9.97-28.51 14.15 14.93-12.9 29.29-26.56 41.82-41.85 2.53-3.17 4.73-7.28 3.4-11.42-2.19-4.78-8.38-6.17-13.01-4.41-6.22 2.3-11.31 6.73-16.58 10.62-10.97 8.71-21.93 17.43-33.19 25.77-5.2-18.33-10.15-36.74-15.67-54.99-1.83-8.75-5.01-17.12-6.96-25.84-8.63-29.85-16.92-59.79-25.17-89.74-3.46-9.92-5.17-20.34-8.55-30.28-3.12-12.07-7.84-23.73-9.64-36.11-1.81-9.4-1.25-19.05-1.07-28.56 1.3-12.62 7.15-25.29 17.57-32.9 5.3-3.82 11.48-6.34 17.77-7.99 18.63-2.64 37.52-2.32 56.24-4.01 7.72-.92 15.59.29 23.21-1.52 10.55-.97 21.16-.9 31.7-1.92 5.68.09 11.32-.39 16.95-1.07 11.37.04 22.7-.94 34.02-1.88 8.35-.05 16.71-.26 25.02-1.09z" fill="#003342" stroke="#003342" stroke-width=".5"/><path d="M482.42 571.76c3.82 9.93 11.91 17.06 19.51 24.1-2.77 10.19-4.13 20.68-5.56 31.12-.25 2.3-.98 4.51-1.78 6.67-3.28-5.62-4.12-12.15-6.28-18.2-3.47-11.42-8.32-22.34-12.53-33.49 3.19-2.66 6.03-5.93 6.64-10.2zM530.55 590.56c5.64-4.97 10.52-10.92 13.54-17.85 1.95 3.8 5.32 6.85 6.25 11.15-6.02 14.04-11.35 28.41-15.27 43.2-.47 2.23-1.86 4.06-3.47 5.63-1.92-9.6-2.56-19.42-4.79-28.95-.55-2.6-1.26-5.17-1.42-7.82 1.25-2.18 3.37-3.65 5.16-5.36z" fill="#00c2b9" stroke="#00c2b9" stroke-width=".5"/><path d="M353.12 589.95c5.21-1.13 10.23 1.14 15.18 2.4 12.99 3.57 26.03 6.95 39.22 9.7 2.81.71 5.8 1.26 8.21 2.98 2.34 1.94 1.75 5.62.22 7.89-4.67 6.62-11.82 10.86-17.16 16.85-7.36 8.93-16.13 16.55-24.05 24.96-1.84 2.13-3.79 4.38-4.47 7.18.32 3.72 4.21 5.18 7.23 6.27 9.96 3.45 19.04 9.15 26.89 16.15 7.63 6.05 13.34 14.02 20.13 20.91 8.01 10.19 15.12 21.06 21.99 32.03 8.36 14.13 16.89 28.18 24.08 42.94 3.92 6.82 6.68 14.23 10.81 20.94.4 8.1.12 16.23.23 24.35-9.29.3-18.36-2.23-27.59-2.87-8.8-.6-17.38-2.67-26.07-3.97-1.65-.41-3.27.01-4.67.9-.34-.17-1.02-.51-1.35-.68 3.38-3.54 6.65-7.83 6.39-13 .2-4.95-4.03-8.89-8.66-9.7-8.28-1.63-16.72.23-25.06.23-3.49-11.49-5.17-23.42-7.77-35.12-6.68-32.97-13.21-65.96-20.1-98.88-4.45-23.52-9.13-46.99-13.84-70.45.05-.51.16-1.51.21-2.01z" fill="#f2f2f2" stroke="#c8c8c8" stroke-linecap="round" stroke-linejoin="round"/><path d="M548.51 655.57c29.24-.19 58.5-.14 87.74-.03.24 9.87.41 19.77-.05 29.62-29.19.08-58.39.18-87.58-.07-.6-9.81-.37-19.7-.11-29.52z" fill="#dd2c08" stroke="#dd2c08" stroke-width=".5"/><path d="M619.97 687.06c.95-.91 2.31-.94 3.54-1.1.52 1.57 1.05 3.16 1.72 4.7 8.02 16.31 14.06 33.69 17.11 51.63.86 8.3 2.24 16.69 1.08 25.04-1.22 9.98-3.48 20.3-9.49 28.59-3.23 4.68-6.41 9.55-11.02 13-15.99 13.1-36.75 18.74-57.05 20.11-6.87.27-14.13 2.31-20.66-.77-.07-5.24.03-10.48-.2-15.7 5.44-13.13 11.97-25.76 17.86-38.68 8.15-15.37 16.26-30.79 25.48-45.55 9.46-14.52 18.75-29.47 31.63-41.27z" fill="#f2f2f2" stroke="#c8c8c8" stroke-linecap="round" stroke-linejoin="round"/><path d="M361.92 799.55c10.93-.62 21.83-1.78 32.7-3.14 8.34 0 16.78-1.86 25.06-.23 4.63.81 8.86 4.75 8.66 9.7.26 5.17-3.01 9.46-6.39 13 .33.17 1.01.51 1.35.68 3.69 1.91 8.2 4.49 8.07 9.29.85 5.71-3 10.3-6.66 14.12 3.34 1.77 7.42 3.14 9.26 6.73 1.12 2.95.92 6.36-.04 9.34-1.59 3.8-5.1 6.25-7.97 9.04 3.62.75 8.05 1.04 10.22 4.51 4.11 6.37 1 14.96-4.65 19.32-5.32 2.79-11.43 3.42-17.34 3.64-13.38.07-26.82.43-40.08-1.6-5.54-.92-11.72-.48-16.55-3.74-5.14-3.39-4.47-11.89.52-15.08 2.75-1.67 5.85-2.62 8.86-3.69-7.51.07-15-.63-22.42-1.67-3.43-.53-7.19-1.17-9.71-3.77-2.05-1.95-2.09-5.1-1.49-7.67 1.24-4.04 5.05-6.73 9-7.74 7.07-1.86 14.42-2.04 21.64-2.88-8.09-.38-16.18-1.05-24.19-2.21-4.35-.56-9.35-2.84-10.22-7.61-.35-4.26 2.62-8.18 6.32-10 5.32-2.88 11.71-1.85 17.2-4.23-6.81-1.02-13.87-.64-20.48-2.73-3.74-1.14-6.87-4.94-6.03-8.98 1.04-4.51 4.99-7.79 9.32-8.99 8.47-2.38 17.33-2.53 26.04-3.41zM132.21 819.03c4.63-1.76 10.82-.37 13.01 4.41 1.33 4.14-.87 8.25-3.4 11.42-12.53 15.29-26.89 28.95-41.82 41.85 9.75-4.18 19.36-8.76 28.51-14.15 6.06-3.1 11.99-6.65 18.56-8.58 4.79-1.45 10.94-.77 13.78 3.84 1.65 3.3.75 7.58-1.8 10.2-5.56 6.17-13.05 10.1-19.12 15.71 5.99-2.6 11.65-6.05 17.95-7.9 4.79-1.51 10.84 0 13.34 4.62 1.31 3.55.09 7.57-2.56 10.17-6.4 6.7-14.63 11.21-21.73 17.09 6.36-2.04 11.94-6.88 18.91-6.56 4.71-.11 9.9 3.66 9.58 8.72-.02 4.05-3.18 7.05-5.97 9.57-6.36 5.39-13.1 10.31-19.91 15.11-12.32 8.36-24.98 16.4-38.68 22.3-5.25 1.08-11.47 1.54-15.96-2.01-3.85-2.83-6.84-8.02-4.92-12.8.81-3.16 3.86-4.78 5.56-7.36-6.94.68-15.33-3.21-16.31-10.76-.83-4.66 2.63-8.24 5.53-11.36-6.14.68-12.48-2.72-15.13-8.32-.82-3.05-.85-6.71 1.29-9.25 1.22-1.56 2.54-3.02 3.82-4.51-4.87-.94-9.98-2.88-12.31-7.62-.59-3.64-.83-7.84 1.69-10.84 5.04-6.61 12.06-11.26 18.32-16.6 11.26-8.34 22.22-17.06 33.19-25.77 5.27-3.89 10.36-8.32 16.58-10.62z" fill="#ffae6e" stroke="#ffae6e" stroke-width=".5"/><path d="M633.98 921c27.68-6.14 54.68-17.11 77.38-34.3-.727.55.108 5.489.201 6.392.21 2.026.553 4.034.784 6.059 1.005 8.815 1.473 17.698 2.296 26.534 1.682 18.055 3.55 36.099 4.879 54.184 1.512 20.58 3.733 41.144 5.64 61.692 1.886 20.334 3.68 40.686 5.582 61.012.781 8.348 1.502 16.702 2.234 25.054 1.03 11.746 2.084 23.491 3.364 35.212 1.088 9.961 2.068 19.934 2.827 29.925.36 4.742.545 9.502.938 14.241.413 4.978 1.164 9.919 1.394 14.914 1.1 4.93.59 10.01 1.41 14.98 1.24 11.93 2.2 23.94 1.67 35.97-.17 7.12-2.64 14.16-6.81 19.94-6.21 7.98-15.33 13.1-24.67 16.6-13.66 5.21-28.3 6.81-42.64 9-14.07 2.5-28.4 2.44-42.64 2.06-7.1-.27-14.01-2.24-20.7-4.52-16.28-5.03-28.89-18.56-35.42-33.99-3.43-7.9-6.12-16.09-7.79-24.54-3.76-13.69-4.49-27.92-6.29-41.94-1.99-22.28-5.94-44.33-8.58-66.54-1.1-10.95-3.2-21.78-3.93-32.77-2.03-13.7-3.19-27.51-4.66-41.27-.31-9.7-1.72-19.32-2.47-28.98-2.83-29.4-5.02-58.84-6.74-88.31 3.49-12.12 6.25-24.44 8.02-36.93.22 1.17.46 2.35.72 3.54 11.02-.92 21.89 2.05 32.91 1.73 11.04-.32 22.12.54 33.13-.71 9.441-.449 18.671-2.619 27.961-4.239m2.24 76.09c-10.77 2.69-17.94 14.48-16.04 25.27 1.35 6.51 3.63 12.8 6.21 18.92 4.31 9.67 8.05 19.61 13.03 28.98 6.13 12.88 13.29 25.51 23.14 35.95 5.68 5.01 12.45 9.64 20.29 10 6.2.36 13.33-.74 17.38-5.96 4.99-5.08 4.82-12.96 2.75-19.3-2.71-7.8-7.01-14.91-11.12-22.03-4.08-6.73-7.05-14.04-11.13-20.77-5.21-10.17-10.34-20.38-15.36-30.64-2.57-6.3-5.34-12.99-11.08-17.07-5.01-4.06-11.96-4.77-18.07-3.35zM414.19 895.55c5.91-.22 12.02-.85 17.34-3.64l-.12 2.52c10.31 3.15 20.32 7.23 30.68 10.24 7.93 2.39 16.18 4.03 23.5 8.08.12-1.98 1.003 6.091 1.063 4.131 1.47 9.58 1.377 9.279 3.637 18.74 1.59 6.71 3.16 13.43 4.91 20.1-2.57 32.09-5.2 64.18-8.67 96.18-.61 6.99-1.74 13.94-2.06 20.96-2.17 22.06-5.34 44.01-8.01 66.01-5.03 37.5-11.17 74.83-16.61 112.26-2.72 14.93-5.59 30.49-14.4 43.21-6.27 9.5-15.74 16.78-26.45 20.6-4.6 1.6-9.29 2.93-14.02 4.07-15.3 1.52-30.8 2.05-46.08-.04-5.5-.44-10.86-1.86-16.35-2.26-11.68-1.61-23.26-4.41-34.36-8.4-8.88-3.53-17.66-8.49-23.37-16.37-4.5-6.01-6.81-13.58-6.55-21.07-.3-9.03.85-17.98 1.66-26.94a9438.513 9438.513 0 0 1 5.701-60.838c.96-9.91 1.273-20.069 2.232-30.056.464-4.827 1.273-9.502 1.672-14.328.426-5.154.878-10.305 1.343-15.456 1.821-20.306 3.756-40.604 5.619-60.907.843-9.188 1.916-18.386 2.123-27.617.78-4.16.93-8.4 1.47-12.58.39-3.84.86-7.67 1.43-11.48 29.77.09 59.58.05 89.37.06 1.53.04 3.07.16 4.6.36-1.64 1.18-3.68 1.12-5.6 1.18-10.07 0-20.13-.17-30.2-.05-.9 4.44-2.74 8.6-4.96 12.53-4.47 9.41-9.88 18.33-14.28 27.78-5.29 11.12-12.18 21.4-17.61 32.46-2.15 4.64-3.97 9.64-3.88 14.84.16 5.83 3.56 11.61 8.9 14.14 7.74 3.59 17.28 3 24.49-1.58 6.94-4.53 13.53-9.92 18.11-16.92 9.46-13.08 15.83-28.01 22.27-42.72 3.31-7.77 7.23-15.31 9.62-23.44 1.87-6.54 2.84-13.95-.64-20.15-.02-.17-.07-.51-.09-.69 3.79-1.14 7.46-2.79 10.56-5.29 8.21-6.14 12.19-16.36 13.69-26.21 1.53-13.16.08-26.57-3.52-39.29-2.94-13.999-5.71-28.039-8.16-42.129z" fill="#f2f2f2" stroke="#c8c8c8" stroke-linecap="round" stroke-linejoin="round"/><path d="M495.2 955.72c3.04 7.53 5.4 15.74 11.08 21.79 3.14 3.45 8.97 4.88 12.73 1.56 6.34-5.57 8.89-13.99 12.23-21.46 1.72 29.47 3.91 58.91 6.74 88.31.75 9.66 2.16 19.28 2.47 28.98-15.51.92-31.11.76-46.6-.42-3.19-.18-6.3-.86-9.38-1.62.32-7.02 1.45-13.97 2.06-20.96 3.47-32 6.1-64.09 8.67-96.18z" fill="#00c2b9" stroke="#00c2b9" stroke-width=".5"/><path d="M636.22 997.09c6.11-1.42 13.06-.71 18.07 3.35 5.74 4.08 8.51 10.77 11.08 17.07 5.02 10.26 10.15 20.47 15.36 30.64 4.08 6.73 7.05 14.04 11.13 20.77 4.11 7.12 8.41 14.23 11.12 22.03 2.07 6.34 2.24 14.22-2.75 19.3-4.05 5.22-11.18 6.32-17.38 5.96-7.84-.36-14.61-4.99-20.29-10-9.85-10.44-17.01-23.07-23.14-35.95-4.98-9.37-8.72-19.31-13.03-28.98-2.58-6.12-4.86-12.41-6.21-18.92-1.9-10.79 5.27-22.58 16.04-25.27zM300.71 1010.6c23.39-.02 46.78.09 70.17.01 10.29-.12 20.7.85 30.83-1.43 3.48 6.2 2.51 13.61.64 20.15-2.39 8.13-6.31 15.67-9.62 23.44-6.44 14.71-12.81 29.64-22.27 42.72-4.58 7-11.17 12.39-18.11 16.92-7.21 4.58-16.75 5.17-24.49 1.58-5.34-2.53-8.74-8.31-8.9-14.14-.09-5.2 1.73-10.2 3.88-14.84 5.43-11.06 12.32-21.34 17.61-32.46 4.4-9.45 9.81-18.37 14.28-27.78 2.22-3.93 4.06-8.09 4.96-12.53 10.07-.12 20.13.05 30.2.05 1.92-.06 3.96 0 5.6-1.18-1.53-.2-3.07-.32-4.6-.36-29.79-.01-59.6.03-89.37-.06l-.81-.09z" fill="#fff" stroke="#fff" stroke-width=".5"/><path d="M476.46 1138.9c2.67-22 5.84-43.95 8.01-66.01 3.08.76 6.19 1.44 9.38 1.62 15.49 1.18 31.09 1.34 46.6.42 1.47 13.76 2.63 27.57 4.66 41.27.73 10.99 2.83 21.82 3.93 32.77 2.64 22.21 6.59 44.26 8.58 66.54 1.8 14.02 2.53 28.25 6.29 41.94 1.67 8.45 4.36 16.64 7.79 24.54 6.53 15.43 19.14 28.96 35.42 33.99 6.69 2.28 13.6 4.25 20.7 4.52 14.24.38 28.57.44 42.64-2.06-.128.023-.031 9.197-.057 10.059a296.747 296.747 0 0 1-.507 10.243c-.444 6.825-1.057 13.638-1.568 20.459a416.61 416.61 0 0 0-.657 10.234c-.159 3.184-.002 6.403-.254 9.553-.904 11.283-2.013 22.57-2.267 33.892-1.21 11.3-.25 22.72-1.49 34.03-.64 18.66.05 37.36-1.06 56.01.03 27.99-.61 56.02.55 84 .1 14.35.1 28.71.33 43.06-.11 8.64 1.07 17.22.88 25.86.26 7.36-.07 14.74.67 22.08.54 8.08.11 16.2.78 24.27.97 7.88.06 15.88 1.26 23.75.8 15.59 1.83 31.19 3.6 46.72 3.2 19.64 6.33 39.38 12.29 58.42 1.77 5.65 3.53 11.3 5.25 16.98-.86.77-1.45 1.91-2.54 2.4-10.59 4.62-22.09 6.39-33.5 7.56-10.66-.47-21.42.48-32-1.28-8.75-1.19-17.68-3.09-25.23-7.91-5.32-3.43-9.45-9.33-9.14-15.87.6-24.62-1.32-49.2-2.34-73.78-.65-13.75-1.49-27.48-2.32-41.22-.6-18.39-2.68-36.69-3.18-55.07-1.28-11.37-.61-22.84-1.66-34.22-1.86-38.58-4.04-77.16-4.26-115.78-1.31-11.31-.32-22.71-1.69-34.01-.53-23.38-2.89-46.66-4.73-69.95-3.89-47.58-8.9-95.05-14.33-142.48-1.59-11.45-2.5-23-4.5-34.39-2.03-12.38-4.32-25.18-11.09-35.97-3.39-5.63-9.58-9.15-16.02-9.91-7.74-.88-15.33 1.28-22.88 2.61-3.69.61-7.34 1.44-10.95 2.39.24 1.88.49 3.77.64 5.68.14 2.05-1.2 3.83-1.73 5.77-2 6.21-2.53 12.79-2.51 19.29-1.39 16.62-.63 33.34-.75 50-.1 17.68 1.02 35.31.67 53 .34 10.01-.8 19.98-.65 30 .199 13.346-.225 26.699.037 40.047.272 13.838.604 27.674.996 41.509 0 27.213 1.813 54.556 3.014 81.738 1.081 24.446 2.054 48.895 3.191 73.339l3.866 83.165c.456 9.8 1.42 19.699 1.42 29.507 1.268 27.671 2.629 55.337 4.082 82.998 0 11.311 1.211 22.761 1.836 34.056.602 10.881 2.144 21.797 3.448 32.66.18 2.06.25 4.14.36 6.23l-1.02.02c-6.98.39-13.88-1.01-20.85-.93-9.26-.11-18.54.36-27.78-.43-11.71-2.82-23.75-5.08-34.59-10.55-6.39-3.21-12.61-8-14.96-15.01-1.81-5.1.35-10.34 1.3-15.35 1.74-8.89 1.21-18.01 1.36-27-.11-16.99.41-34.01-.96-50.96.16-18.4-1.98-36.7-2.25-55.08-1.25-10.96-.68-22.01-1.4-33.01-.93-11.98-.91-24.01-1.85-35.99-.88-10.73-.69-21.49-1.46-32.22-.72-11.58-.3-23.2-1.07-34.77-.29-13.66-.06-27.34-1.28-40.96-4.73-58.29-13.7-116.11-22.15-173.94-.62-4.41-.9-8.94-2.66-13.07 10.93.62 22.15.81 32.83-1.88 4.73-1.14 9.42-2.47 14.02-4.07 10.71-3.82 20.18-11.1 26.45-20.6 8.81-12.72 11.68-28.28 14.4-43.21 5.44-37.429 11.58-74.759 16.61-112.26z" fill="#394f50" stroke="#394f50" stroke-width=".5"/><path d="M496.8 1188.8c7.55-1.33 15.14-3.49 22.88-2.61 6.44.76 12.63 4.28 16.02 9.91 6.77 10.79 9.06 23.59 11.09 35.97 2 11.39 2.91 22.94 4.5 34.39 5.43 47.43 10.44 94.9 14.33 142.48 1.84 23.29 4.2 46.57 4.73 69.95 1.37 11.3.38 22.7 1.69 34.01.22 38.62 2.4 77.2 4.26 115.78 1.05 11.38.38 22.85 1.66 34.22.5 18.38 2.58 36.68 3.18 55.07.83 13.74 1.67 27.47 2.32 41.22 1.02 24.58 2.94 49.16 2.34 73.78-.31 6.54 3.82 12.44 9.14 15.87 7.55 4.82 16.48 6.72 25.23 7.91 10.58 1.76 21.34.81 32 1.28-9.03 1.45-18.19.59-27.28.93-19.76-.05-39.49.93-59.23 1.63-1.08-.08-2.14-.21-3.19-.39-.478-.082.636-36.396.609-39.919a1209.588 1209.588 0 0 0-1.024-41.422c-.339-8.086-1.365-16.332-1.365-24.399-.522-2.922-.053-5.842-.173-8.758-.142-3.459-.281-6.917-.421-10.376l-.843-20.753-1.685-41.505c-.651-16.04-1.988-32.125-1.988-48.177.074-6.602-.918-13.151-.995-19.745-.08-6.89-.247-13.78-.476-20.666-.669-20.132-2.56-40.202-2.56-60.339.329-6.56-.507-13.255-.778-19.814a3075.528 3075.528 0 0 0-3.191-62.101c-1.28-20.813-2.026-41.911-4.551-62.614-1.63-10.57-2.01-21.26-3.17-31.86-.95-5.68-1.03-11.45-1.87-17.13-.88-4.88-.23-9.89-1.29-14.73-.69-5.96-.72-11.98-1.65-17.92-.91-5.02-.18-10.17-1.08-15.18-1.2-5.83-.28-11.84-1.39-17.67-2.11-19.49-2.34-39.31-7.45-58.36-.82-3.2-2.02-6.39-4.12-8.97-1.54-2.44-4.74-1.35-7.12-1.59-9.13.4-18.34-.7-27.4.67-.15-1.91-.4-3.8-.64-5.68 3.611-.952 7.261-1.782 10.951-2.392z" fill="#182e30" stroke="#182e30" stroke-width=".5"/><path d="M342.55 1316.7c5.49.4 10.85 1.82 16.35 2.26 15.28 2.09 30.78 1.56 46.08.04-10.68 2.69-21.9 2.5-32.83 1.88-7.89-.32-15.76-1.02-23.56-2.24-2.31-.44-4.59-1-6.84-1.64l.8-.3z" fill="#939b9b" opacity=".95" stroke="#939b9b" stroke-width=".5"/><path d="M348.59 1318.6c7.8 1.22 15.67 1.92 23.56 2.24 1.76 4.13 2.04 8.66 2.66 13.07 8.45 57.83 17.42 115.65 22.15 173.94 1.22 13.62.99 27.3 1.28 40.96.77 11.57.35 23.19 1.07 34.77.77 10.73.58 21.49 1.46 32.22.94 11.98.92 24.01 1.85 35.99.72 11 .15 22.05 1.4 33.01.27 18.38 2.41 36.68 2.25 55.08 1.37 16.95.85 33.97.96 50.96-.15 8.99.38 18.11-1.36 27-.95 5.01-3.11 10.25-1.3 15.35 2.35 7.01 8.57 11.8 14.96 15.01 10.84 5.47 22.88 7.73 34.59 10.55-24.49.54-49.85 1.19-73.07-7.86-2.13-.76-4.55-2.44-3.45-5.01 3.5-13.06 5.87-26.38 7.61-39.77 2.72-11.88 2.07-24.18 3.31-36.24.09-14 .48-28.04-.7-42-.42-6.35-.21-12.7-.21-19.04.03-6.69-1.33-13.3-1.09-19.99.3-10.03-1.39-19.97-1.67-29.97-.12-7.05-1.29-14.03-1.27-21.07.05-5.69-.97-11.31-1.05-16.98-.07-4.08-.01-8.16-.56-12.2-1.71-11.3-1.5-22.78-3.06-34.1-.61-5.23-1.45-10.45-1.44-15.72.06-4.72-1.32-9.31-1.17-14.02.08-5.36-1.31-10.58-1.55-15.91-.17-5.73-1.68-11.32-1.5-17.07-1.15-7.18-.91-14.5-2.44-21.61-.84-9.8-1.72-19.59-3.07-29.33-.54-9.04-1.81-18.01-3.04-26.98-1.68-9.45-1.94-19.09-3.93-28.48-2.73-22.96-6.64-45.76-10.18-68.59-.49-6.09-2.06-12.11-2-18.21z" fill="#182e30" stroke="#182e30" stroke-width=".5"/><path d="M378.91 1574.6c1.56 11.32 1.35 22.8 3.06 34.1.55 4.04.49 8.12.56 12.2.08 5.67 1.1 11.29 1.05 16.98-.02 7.04 1.15 14.02 1.27 21.07.28 10 1.97 19.94 1.67 29.97-.24 6.69 1.12 13.3 1.09 19.99 0 6.34-.21 12.69.21 19.04 1.18 13.96.79 28 .7 42-1.24 12.06-.59 24.36-3.31 36.24.14-9.82 2.44-19.49 2.02-29.32.01-9.34 1.6-18.66.62-28-1.28-12.29-.13-24.67-.8-36.98-1.89-11.85-.21-23.96-2.27-35.79-1.17-7.36.08-14.84-.96-22.2-.47-3.31-.72-6.65-.72-9.97.2-10.08-2.44-19.94-1.9-30.02-1.54-8.67-.42-17.52-1.97-26.17-.68-4.35-.88-8.78-.32-13.14z" fill="#101c1c" opacity=".51" stroke="#101c1c" stroke-width=".5"/><path d="M381.05 1850.9c23.22 9.05 48.58 8.4 73.07 7.86 9.24.79 18.52.32 27.78.43 6.97-.08 13.87 1.32 20.85.93-.19.89-.36 1.81-.51 2.75-15.36 8.05-32.15 12.8-48.84 17.21-30.98 7.59-62.65 12.29-94.47 14.41-9.05-.31-18.01 1.35-27.05 1.06-6.71-.04-13.43.19-20.11-.58-8.47-.97-17.31.61-25.41-2.71 1.94-2.15 4.82-2.69 7.43-3.56 9.83-3.4 19.31-7.7 29.13-11.11 9.02-3.77 18.01-7.64 26.98-11.53 10.78-4.21 20.9-9.85 31.15-15.16zM652.17 1858c11.41-1.17 22.91-2.94 33.5-7.56 10.02 4.87 19.79 10.28 30.08 14.62 9.17 4.37 18.8 7.65 28.01 11.94 8.64 3.51 17.43 6.62 26.08 10.12 4.16 1.75 8.69 2.63 12.54 5.1-3.64 1.48-7.54 2.32-11.48 2.3-9.36-.12-18.65 1.51-28.02 1.06-8.35.22-16.67-.17-24.98-.93-10.92.2-21.74-1.25-32.57-2.4-23-2.18-45.77-6.43-68.23-11.81-11.07-3.61-22.36-6.56-33.35-10.42-6.1-1.95-11.77-5.14-18.09-6.38v-3.08c19.74-.7 39.47-1.68 59.23-1.63 9.09-.34 18.25.52 27.28-.93z" fill="#582200" stroke="#582200" stroke-width=".5"/><path d="M453.4 1880.1c16.69-4.41 33.48-9.16 48.84-17.21.48 7.01-5.76 11.85-10.93 15.44-16.24 10.19-35.07 14.86-53.46 19.52-20.8 4.61-41.8 8.42-63 10.5-6.7.25-13.28 1.8-19.99 1.89-18.1.61-36.59 1.8-54.3-2.8-5.54-1.56-11.21-3.72-15.15-8.09-1.82-1.55-.96-4.17-1.17-6.22.67-.39 1.38-.67 2.12-.85 8.1 3.32 16.94 1.74 25.41 2.71 6.68.77 13.4.54 20.11.58 9.04.29 18-1.37 27.05-1.06 31.82-2.12 63.49-6.82 94.47-14.41zM565.66 1863.6c6.32 1.24 11.99 4.43 18.09 6.38 10.99 3.86 22.28 6.81 33.35 10.42 22.46 5.38 45.23 9.63 68.23 11.81 10.83 1.15 21.65 2.6 32.57 2.4 8.31.76 16.63 1.15 24.98.93 9.37.45 18.66-1.18 28.02-1.06 3.94.02 7.84-.82 11.48-2.3 2.43 1.03 3.12 3.78 1.84 6.05-3.5 5.27-9.84 7.34-15.57 9.16-12.98 3.28-26.47 3.61-39.78 3.4-10.18-.28-20.39-.6-30.47-2.14-10.68-.64-21.26-2.2-31.8-4.05-13.95-1.7-27.68-4.71-41.31-8.11-9.06-1.78-17.62-5.27-26.47-7.79-8.56-3.23-17.17-6.71-24.51-12.29-4.46-2.88-7.84-7.51-8.65-12.81z" fill="#310" stroke="#310" stroke-width=".5"/><path d="M515.11 919.56c23.31 4.343 30.659 4.616 45.148 6.384 15.498 1.538 34.751.541 45.761-.709 9.44-.45 18.671-2.62 27.961-4.24 27.68-6.14 54.679-17.111 77.379-34.301 33.4-24.02 56.001-62.1 62.221-102.68 2.65-17.53 3.8-35.4 1.83-53.05-.09-7.98-2.24-15.78-2.14-23.75-.26.51-.52 1.02-.77 1.54-.64-9.31-3.27-18.35-5.32-27.43-4.65-17.45-9.77-34.88-17.48-51.26-8.3-18.01-19.46-34.611-32.36-49.631-4.86-5.37-9.49-11.029-15.13-15.609-.18 4.58-1.53 9.22-4.92 12.48-6.97 7.19-17.26 8.97-26.53 11.449-13.1 3.75-26.348 6.92-39.528 10.381-6.02 1.55-12.391 1.619-18.221 3.889-2.58.91-4.45 3.76-3.79 6.5.71 3.68 3.45 6.481 6.17 8.861 6.29 5.34 11.8 11.52 17.75 17.24 4.81 4.54 8.65 9.99 13.47 14.529 2.83 2.84 6.03 5.4 8.25 8.78 2.05 2.78-.14 6.69-3.02 7.84-4.58 2.02-9.32 3.68-13.83 5.86-.26-5.67.56-11.41-.65-17.01-.57 10.04-.319 20.108-.729 30.158-4.37.23-8.75.19-13.12.17.52 1.57 1.05 3.162 1.72 4.702 8.02 16.31 14.059 33.689 17.109 51.629.86 8.3 2.24 16.69 1.08 25.04-1.22 9.98-3.48 20.3-9.49 28.59-3.23 4.68-6.41 9.55-11.02 13-15.99 13.1-36.751 18.74-57.051 20.11-14.672 2.127-33.742.398-58.928-1.513-25.185-1.912-52.892-4.886-52.892-4.886-8.8-.6-17.378-2.67-26.068-3.97-1.65-.41-3.27.01-4.67.9 3.69 1.91 8.198 4.489 8.068 9.289.85 5.71-3 10.3-6.66 14.12 3.34 1.77 7.422 3.14 9.262 6.73 1.12 2.95.919 6.36-.041 9.34-1.59 3.8-5.1 6.25-7.97 9.04 3.62.75 8.05 1.04 10.22 4.51 4.11 6.37 1 14.96-4.65 19.32l-.12 2.52c10.31 3.15 35.532 13.565 40.712 15.07s19.68 5.722 42.989 10.065z" fill="#f2f2f2" stroke="#c8c8c8" stroke-linecap="round" stroke-linejoin="round"/></svg>