<svg width="345.6" height="345.6" clip-rule="evenodd" fill-rule="evenodd" image-rendering="optimizeQuality" shape-rendering="geometricPrecision" text-rendering="geometricPrecision" viewBox="0 0 9144 9144" xmlns="http://www.w3.org/2000/svg"><defs><linearGradient id="a" x1="10043" x2="-898.9" y1="6303" y2="2841" gradientUnits="userSpaceOnUse"><stop stop-color="#48CFAE" offset="0"/><stop stop-color="#4FC0E8" offset="1"/></linearGradient></defs><path fill="url(#a)" d="M0 0h9144v9144H0z"/><path d="M3979 3133h1186v-508H3979v508zm481 3169h225l400-561H4059l401 561zm197-3000v2270h508V3302h-508zm-170 2270V3302h-508v2270h508zm847-2355v2439c0 21-7 40-20 55l-672 941c-2 3-5 7-8 10l-1 1-2 2-1 1h-1c-5 6-12 10-19 14h-1c-9 5-19 7-29 8h-2l-2 1h-8l-2-1h-2c-10-1-19-3-29-8h-1c-7-4-13-8-19-14l-2-1-1-2-2-1c-3-4-5-7-8-10l-672-941c-13-15-20-34-20-55V2540c0-47 38-85 85-85h1354c47 0 85 38 85 85v677z" fill="#fff" fill-rule="nonzero"/></svg>