<svg width="345.6" height="345.6" clip-rule="evenodd" fill-rule="evenodd" image-rendering="optimizeQuality" shape-rendering="geometricPrecision" text-rendering="geometricPrecision" viewBox="0 0 9144 9144" xmlns="http://www.w3.org/2000/svg"><defs><style>.fil0,.fil1{fill:#36bc9b}.fil1{fill-opacity:.501961}</style><linearGradient id="a" x1="10043" x2="-898.9" y1="6303" y2="2841" gradientUnits="userSpaceOnUse"><stop stop-color="#48CFAE" offset="0"/><stop stop-color="#4FC0E8" offset="1"/></linearGradient></defs><path class="fil0" d="M8882 7755h16.93v16.94H8882z"/><path class="fil1" d="M8882 7755h-9v17h9zM8907 7755h-9v17h9zM8882 7772v9h16v-9zM8882 7747v8h16v-8z"/><path class="fil0" d="M8882 7696h16.93v16.94H8882zM8865 7705h16.93v16.94H8865zM8848 7713h16.93v16.94H8848z"/><path class="fil0" d="M8898 7705h16.93v16.94H8898zM8915 7713h16.93v16.94H8915zM8882 7645h16.93v16.94H8882zM8865 7654h16.93v16.94H8865zM8848 7662h16.93v16.94H8848z"/><path class="fil0" d="M8898 7654h16.93v16.94H8898zM8915 7662h16.93v16.94H8915zM8932 7671h16.93v16.94H8932zM8831 7671h16.93v16.94H8831z"/><path fill="url(#a)" d="M0 0h9144v9144H0z"/><path d="M5304 6777H2455c-48 0-88-39-88-88 0-563 54-901 312-1159 243-244 660-399 1383-595v-158c-241-125-422-425-506-772-52-214-68-448-38-669 30-225 108-438 242-608 173-218 438-361 812-361s639 143 812 361c134 170 212 383 242 608 30 221 14 455-38 669-84 347-265 647-506 772v158c723 196 1140 351 1383 595 258 258 312 596 312 1159 0 49-40 88-88 88H5304zm-2760-176h4056c-5-462-57-745-260-947-222-223-634-370-1364-566-40-8-70-43-70-86v-281c0-35 21-69 56-82 212-83 377-354 455-675 47-194 62-405 35-605-26-195-92-378-206-521-141-178-360-295-674-295s-533 117-674 295c-114 143-180 326-206 521-27 200-12 411 35 605 77 319 241 588 451 673 35 12 60 45 60 84v281c0 39-26 75-65 85-733 197-1146 344-1369 567-203 202-255 485-260 947z" fill="#fff" fill-rule="nonzero"/></svg>